<?xml version="1.0" encoding="UTF-8"?><svg xmlns="http://www.w3.org/2000/svg" xmlns:xlink="http://www.w3.org/1999/xlink" fill-opacity="1" color-rendering="auto" color-interpolation="auto" text-rendering="auto" stroke="black" stroke-linecap="square" width="221" stroke-miterlimit="10" shape-rendering="auto" stroke-opacity="1" fill="black" stroke-dasharray="none" font-weight="normal" stroke-width="1" height="428" font-family="'Dialog'" font-style="normal" stroke-linejoin="miter" font-size="12px" stroke-dashoffset="0" image-rendering="auto">
  <!--Generated by ySVG 2.5-->
  <defs id="genericDefs"/>
  <g>
    <defs id="defs1">
      <linearGradient x1="170" gradientUnits="userSpaceOnUse" x2="250" y1="143" y2="183" id="linearGradient1" spreadMethod="reflect">
        <stop stop-opacity="1" stop-color="rgb(232,238,247)" offset="0%"/>
        <stop stop-opacity="1" stop-color="rgb(183,201,227)" offset="100%"/>
      </linearGradient>
      <linearGradient x1="170" gradientUnits="userSpaceOnUse" x2="250" y1="204" y2="244" id="linearGradient2" spreadMethod="reflect">
        <stop stop-opacity="1" stop-color="rgb(232,238,247)" offset="0%"/>
        <stop stop-opacity="1" stop-color="rgb(183,201,227)" offset="100%"/>
      </linearGradient>
      <linearGradient x1="235" gradientUnits="userSpaceOnUse" x2="295" y1="261" y2="339" id="linearGradient3" spreadMethod="reflect">
        <stop stop-opacity="1" stop-color="rgb(232,238,247)" offset="0%"/>
        <stop stop-opacity="1" stop-color="rgb(183,201,227)" offset="100%"/>
      </linearGradient>
      <linearGradient x1="225" gradientUnits="userSpaceOnUse" x2="305" y1="-58.5" y2="-18.5" id="linearGradient4" spreadMethod="reflect">
        <stop stop-opacity="1" stop-color="rgb(232,238,247)" offset="0%"/>
        <stop stop-opacity="1" stop-color="rgb(183,201,227)" offset="100%"/>
      </linearGradient>
      <linearGradient x1="280" gradientUnits="userSpaceOnUse" x2="360" y1="143" y2="183" id="linearGradient5" spreadMethod="reflect">
        <stop stop-opacity="1" stop-color="rgb(232,238,247)" offset="0%"/>
        <stop stop-opacity="1" stop-color="rgb(183,201,227)" offset="100%"/>
      </linearGradient>
      <linearGradient x1="280" gradientUnits="userSpaceOnUse" x2="360" y1="204" y2="244" id="linearGradient6" spreadMethod="reflect">
        <stop stop-opacity="1" stop-color="rgb(232,238,247)" offset="0%"/>
        <stop stop-opacity="1" stop-color="rgb(183,201,227)" offset="100%"/>
      </linearGradient>
      <linearGradient x1="197" gradientUnits="userSpaceOnUse" x2="333" y1="51.5" y2="91.5" id="linearGradient7" spreadMethod="reflect">
        <stop stop-opacity="1" stop-color="rgb(232,238,247)" offset="0%"/>
        <stop stop-opacity="1" stop-color="rgb(183,201,227)" offset="100%"/>
      </linearGradient>
      <linearGradient x1="197" gradientUnits="userSpaceOnUse" x2="333" y1="-3.5" y2="36.5" id="linearGradient8" spreadMethod="reflect">
        <stop stop-opacity="1" stop-color="rgb(232,238,247)" offset="0%"/>
        <stop stop-opacity="1" stop-color="rgb(183,201,227)" offset="100%"/>
      </linearGradient>
      <clipPath clipPathUnits="userSpaceOnUse" id="clipPath1">
        <path d="M0 0 L221 0 L221 428 L0 428 L0 0 Z"/>
      </clipPath>
      <clipPath clipPathUnits="userSpaceOnUse" id="clipPath2">
        <path d="M155 -74 L376 -74 L376 354 L155 354 L155 -74 Z"/>
      </clipPath>
    </defs>
    <g fill="white" text-rendering="geometricPrecision" shape-rendering="geometricPrecision" transform="translate(-155,74)" stroke="white">
      <rect x="155" width="221" height="428" y="-74" clip-path="url(#clipPath2)" stroke="none"/>
    </g>
    <g fill="url(#linearGradient1)" text-rendering="geometricPrecision" shape-rendering="geometricPrecision" transform="matrix(1,0,0,1,-155,74)" stroke="url(#linearGradient1)">
      <path d="M170 143 L250 143 L250 183 L170 183 Z" stroke="none" clip-path="url(#clipPath2)"/>
    </g>
    <g text-rendering="geometricPrecision" stroke-miterlimit="1.45" shape-rendering="geometricPrecision" transform="matrix(1,0,0,1,-155,74)" stroke-linecap="butt">
      <path fill="none" d="M170 143 L250 143 L250 183 L170 183 Z" clip-path="url(#clipPath2)"/>
      <text x="180.9756" xml:space="preserve" y="167.5352" clip-path="url(#clipPath2)" font-family="sans-serif" stroke="none">Tokenizer</text>
    </g>
    <g fill="url(#linearGradient2)" text-rendering="geometricPrecision" shape-rendering="geometricPrecision" transform="matrix(1,0,0,1,-155,74)" stroke="url(#linearGradient2)">
      <path d="M170 204 L250 204 L250 244 L170 244 Z" stroke="none" clip-path="url(#clipPath2)"/>
    </g>
    <g text-rendering="geometricPrecision" stroke-miterlimit="1.45" shape-rendering="geometricPrecision" transform="matrix(1,0,0,1,-155,74)" stroke-linecap="butt">
      <path fill="none" d="M170 204 L250 204 L250 244 L170 244 Z" clip-path="url(#clipPath2)"/>
      <text x="192.2139" xml:space="preserve" y="228.5352" clip-path="url(#clipPath2)" font-family="sans-serif" stroke="none">Filters</text>
    </g>
    <g fill="url(#linearGradient3)" text-rendering="geometricPrecision" shape-rendering="geometricPrecision" transform="matrix(1,0,0,1,-155,74)" stroke="url(#linearGradient3)">
      <path d="M235 276.6 C236.8 261 293.2 261 295 276.6 L295 323.4 C293.2 339 236.8 339 235 323.4 Z" stroke="none" clip-path="url(#clipPath2)"/>
    </g>
    <g text-rendering="geometricPrecision" stroke-miterlimit="1.45" shape-rendering="geometricPrecision" transform="matrix(1,0,0,1,-155,74)" stroke-linecap="butt">
      <path fill="none" d="M235 276.6 C236.8 261 293.2 261 295 276.6 L295 323.4 C293.2 339 236.8 339 235 323.4 Z" clip-path="url(#clipPath2)"/>
      <path fill="none" d="M295 276.6 C293.2 292.2 236.8 292.2 235 276.6" clip-path="url(#clipPath2)"/>
      <text x="248.749" xml:space="preserve" y="304.5352" clip-path="url(#clipPath2)" font-family="sans-serif" stroke="none">Index</text>
    </g>
    <g fill="url(#linearGradient4)" text-rendering="geometricPrecision" shape-rendering="geometricPrecision" transform="matrix(1,0,0,1,-155,74)" stroke="url(#linearGradient4)">
      <ellipse rx="40" ry="20" clip-path="url(#clipPath2)" cx="265" cy="-38.5" stroke="none"/>
    </g>
    <g text-rendering="geometricPrecision" stroke-miterlimit="1.45" shape-rendering="geometricPrecision" transform="matrix(1,0,0,1,-155,74)" stroke-linecap="butt">
      <ellipse rx="40" fill="none" ry="20" clip-path="url(#clipPath2)" cx="265" cy="-38.5"/>
      <text x="235.1113" xml:space="preserve" y="-33.9648" clip-path="url(#clipPath2)" font-family="sans-serif" stroke="none">Document</text>
    </g>
    <g fill="url(#linearGradient5)" text-rendering="geometricPrecision" shape-rendering="geometricPrecision" transform="matrix(1,0,0,1,-155,74)" stroke="url(#linearGradient5)">
      <path d="M280 143 L360 143 L360 183 L280 183 Z" stroke="none" clip-path="url(#clipPath2)"/>
    </g>
    <g text-rendering="geometricPrecision" stroke-miterlimit="1.45" shape-rendering="geometricPrecision" transform="matrix(1,0,0,1,-155,74)" stroke-linecap="butt">
      <path fill="none" d="M280 143 L360 143 L360 183 L280 183 Z" clip-path="url(#clipPath2)"/>
      <text x="290.9756" xml:space="preserve" y="167.5352" clip-path="url(#clipPath2)" font-family="sans-serif" stroke="none">Tokenizer</text>
    </g>
    <g fill="url(#linearGradient6)" text-rendering="geometricPrecision" shape-rendering="geometricPrecision" transform="matrix(1,0,0,1,-155,74)" stroke="url(#linearGradient6)">
      <path d="M280 204 L360 204 L360 244 L280 244 Z" stroke="none" clip-path="url(#clipPath2)"/>
    </g>
    <g text-rendering="geometricPrecision" stroke-miterlimit="1.45" shape-rendering="geometricPrecision" transform="matrix(1,0,0,1,-155,74)" stroke-linecap="butt">
      <path fill="none" d="M280 204 L360 204 L360 244 L280 244 Z" clip-path="url(#clipPath2)"/>
      <text x="302.2139" xml:space="preserve" y="228.5352" clip-path="url(#clipPath2)" font-family="sans-serif" stroke="none">Filters</text>
    </g>
    <g fill="url(#linearGradient7)" text-rendering="geometricPrecision" shape-rendering="geometricPrecision" transform="matrix(1,0,0,1,-155,74)" stroke="url(#linearGradient7)">
      <path d="M197 51.5 L333 51.5 L333 91.5 L197 91.5 Z" stroke="none" clip-path="url(#clipPath2)"/>
    </g>
    <g text-rendering="geometricPrecision" stroke-miterlimit="1.45" shape-rendering="geometricPrecision" transform="matrix(1,0,0,1,-155,74)" stroke-linecap="butt">
      <path fill="none" d="M197 51.5 L333 51.5 L333 91.5 L197 91.5 Z" clip-path="url(#clipPath2)"/>
      <text x="209.2979" xml:space="preserve" y="76.0352" clip-path="url(#clipPath2)" font-family="sans-serif" stroke="none">UpdateProcessor(s)</text>
    </g>
    <g fill="url(#linearGradient8)" text-rendering="geometricPrecision" shape-rendering="geometricPrecision" transform="matrix(1,0,0,1,-155,74)" stroke="url(#linearGradient8)">
      <path d="M197 -3.5 L333 -3.5 L333 36.5 L197 36.5 Z" stroke="none" clip-path="url(#clipPath2)"/>
    </g>
    <g text-rendering="geometricPrecision" stroke-miterlimit="1.45" shape-rendering="geometricPrecision" transform="matrix(1,0,0,1,-155,74)" stroke-linecap="butt">
      <path fill="none" d="M197 -3.5 L333 -3.5 L333 36.5 L197 36.5 Z" clip-path="url(#clipPath2)"/>
      <text x="221.6348" xml:space="preserve" y="21.0352" clip-path="url(#clipPath2)" font-family="sans-serif" stroke="none">UpdateHandler</text>
    </g>
    <g text-rendering="geometricPrecision" stroke-miterlimit="1.45" shape-rendering="geometricPrecision" transform="matrix(1,0,0,1,-155,74)" stroke-linecap="butt">
      <path fill="none" d="M210 182.9858 L210 196.0136" clip-path="url(#clipPath2)"/>
    </g>
    <g text-rendering="geometricPrecision" stroke-miterlimit="1.45" shape-rendering="geometricPrecision" transform="matrix(1,0,0,1,-155,74)" stroke-linecap="butt">
      <path d="M210 204.0136 L215 192.0136 L210 195.0136 L205 192.0136 Z" stroke="none" clip-path="url(#clipPath2)"/>
      <path fill="none" d="M224.4751 244.002 L237.7323 262.3209" clip-path="url(#clipPath2)"/>
      <path d="M242.4224 268.8018 L239.4378 256.1491 L237.146 261.5108 L231.3366 262.0118 Z" clip-path="url(#clipPath2)" stroke="none"/>
      <path fill="none" d="M320 182.9858 L320 196.0136" clip-path="url(#clipPath2)"/>
      <path d="M320 204.0136 L325 192.0136 L320 195.0136 L315 192.0136 Z" clip-path="url(#clipPath2)" stroke="none"/>
      <path fill="none" d="M305.5249 244.002 L292.2677 262.3209" clip-path="url(#clipPath2)"/>
      <path d="M287.5776 268.8019 L298.6634 262.0118 L292.854 261.5108 L290.5622 256.1491 Z" clip-path="url(#clipPath2)" stroke="none"/>
      <path fill="none" d="M252.9822 91.4933 L226.1472 136.1368" clip-path="url(#clipPath2)"/>
      <path d="M222.0258 142.9935 L232.4934 135.2845 L226.6624 135.2798 L223.9226 130.1326 Z" clip-path="url(#clipPath2)" stroke="none"/>
      <text x="186.9281" xml:space="preserve" y="119.3359" clip-path="url(#clipPath2)" font-family="sans-serif" stroke="none">field</text>
      <text x="179.2582" xml:space="preserve" y="133.4688" clip-path="url(#clipPath2)" font-family="sans-serif" stroke="none">"name"</text>
      <path fill="none" d="M277.0178 91.4933 L303.8528 136.1368" clip-path="url(#clipPath2)"/>
      <path d="M307.9742 142.9935 L306.0774 130.1326 L303.3376 135.2798 L297.5066 135.2844 Z" clip-path="url(#clipPath2)" stroke="none"/>
      <text x="317.6262" xml:space="preserve" y="113.8194" clip-path="url(#clipPath2)" font-family="sans-serif" stroke="none">field</text>
      <text x="302.7434" xml:space="preserve" y="127.9522" clip-path="url(#clipPath2)" font-family="sans-serif" stroke="none">"location"</text>
      <path fill="none" d="M265 -18.4927 L265 -11.4909" clip-path="url(#clipPath2)"/>
      <path d="M265 -3.4909 L270 -15.4909 L265 -12.4909 L260 -15.4909 Z" clip-path="url(#clipPath2)" stroke="none"/>
      <path fill="none" d="M265 36.5073 L265 43.5091" clip-path="url(#clipPath2)"/>
      <path d="M265 51.5091 L270 39.5091 L265 42.5091 L260 39.5091 Z" clip-path="url(#clipPath2)" stroke="none"/>
    </g>
  </g>
</svg>
