<?xml version="1.0" encoding="UTF-8"?><svg xmlns="http://www.w3.org/2000/svg" xmlns:xlink="http://www.w3.org/1999/xlink" fill-opacity="1" color-rendering="auto" color-interpolation="auto" text-rendering="auto" stroke="black" stroke-linecap="square" width="200" stroke-miterlimit="10" shape-rendering="auto" stroke-opacity="1" fill="black" stroke-dasharray="none" font-weight="normal" stroke-width="1" height="330" font-family="'Dialog'" font-style="normal" stroke-linejoin="miter" font-size="12px" stroke-dashoffset="0" image-rendering="auto">
  <!--Generated by ySVG 2.5-->
  <defs id="genericDefs"/>
  <g>
    <defs id="defs1">
      <linearGradient x1="170" gradientUnits="userSpaceOnUse" x2="250" y1="143" y2="183" id="linearGradient1" spreadMethod="reflect">
        <stop stop-opacity="1" stop-color="rgb(232,238,247)" offset="0%"/>
        <stop stop-opacity="1" stop-color="rgb(183,201,227)" offset="100%"/>
      </linearGradient>
      <linearGradient x1="170" gradientUnits="userSpaceOnUse" x2="250" y1="204" y2="244" id="linearGradient2" spreadMethod="reflect">
        <stop stop-opacity="1" stop-color="rgb(232,238,247)" offset="0%"/>
        <stop stop-opacity="1" stop-color="rgb(183,201,227)" offset="100%"/>
      </linearGradient>
      <linearGradient x1="235" gradientUnits="userSpaceOnUse" x2="295" y1="261" y2="339" id="linearGradient3" spreadMethod="reflect">
        <stop stop-opacity="1" stop-color="rgb(232,238,247)" offset="0%"/>
        <stop stop-opacity="1" stop-color="rgb(183,201,227)" offset="100%"/>
      </linearGradient>
      <linearGradient x1="225" gradientUnits="userSpaceOnUse" x2="305" y1="19.1208" y2="59.1208" id="linearGradient4" spreadMethod="reflect">
        <stop stop-opacity="1" stop-color="rgb(232,238,247)" offset="0%"/>
        <stop stop-opacity="1" stop-color="rgb(183,201,227)" offset="100%"/>
      </linearGradient>
      <linearGradient x1="280" gradientUnits="userSpaceOnUse" x2="360" y1="143" y2="183" id="linearGradient5" spreadMethod="reflect">
        <stop stop-opacity="1" stop-color="rgb(232,238,247)" offset="0%"/>
        <stop stop-opacity="1" stop-color="rgb(183,201,227)" offset="100%"/>
      </linearGradient>
      <linearGradient x1="280" gradientUnits="userSpaceOnUse" x2="360" y1="204" y2="244" id="linearGradient6" spreadMethod="reflect">
        <stop stop-opacity="1" stop-color="rgb(232,238,247)" offset="0%"/>
        <stop stop-opacity="1" stop-color="rgb(183,201,227)" offset="100%"/>
      </linearGradient>
      <linearGradient x1="225" gradientUnits="userSpaceOnUse" x2="305" y1="81.0604" y2="121.0604" id="linearGradient7" spreadMethod="reflect">
        <stop stop-opacity="1" stop-color="rgb(232,238,247)" offset="0%"/>
        <stop stop-opacity="1" stop-color="rgb(183,201,227)" offset="100%"/>
      </linearGradient>
      <clipPath clipPathUnits="userSpaceOnUse" id="clipPath1">
        <path d="M0 0 L200 0 L200 330 L0 330 L0 0 Z"/>
      </clipPath>
      <clipPath clipPathUnits="userSpaceOnUse" id="clipPath2">
        <path d="M165 14 L365 14 L365 344 L165 344 L165 14 Z"/>
      </clipPath>
    </defs>
    <g fill="url(#linearGradient1)" text-rendering="geometricPrecision" shape-rendering="geometricPrecision" transform="matrix(1,0,0,1,-165,-14)" stroke="url(#linearGradient1)">
      <path d="M170 143 L250 143 L250 183 L170 183 Z" stroke="none" clip-path="url(#clipPath2)"/>
    </g>
    <g text-rendering="geometricPrecision" stroke-miterlimit="1.45" shape-rendering="geometricPrecision" transform="matrix(1,0,0,1,-165,-14)" stroke-linecap="butt">
      <path fill="none" d="M170 143 L250 143 L250 183 L170 183 Z" clip-path="url(#clipPath2)"/>
      <text x="180.9756" xml:space="preserve" y="167.5352" clip-path="url(#clipPath2)" font-family="sans-serif" stroke="none">Tokenizer</text>
    </g>
    <g fill="url(#linearGradient2)" text-rendering="geometricPrecision" shape-rendering="geometricPrecision" transform="matrix(1,0,0,1,-165,-14)" stroke="url(#linearGradient2)">
      <path d="M170 204 L250 204 L250 244 L170 244 Z" stroke="none" clip-path="url(#clipPath2)"/>
    </g>
    <g text-rendering="geometricPrecision" stroke-miterlimit="1.45" shape-rendering="geometricPrecision" transform="matrix(1,0,0,1,-165,-14)" stroke-linecap="butt">
      <path fill="none" d="M170 204 L250 204 L250 244 L170 244 Z" clip-path="url(#clipPath2)"/>
      <text x="192.2139" xml:space="preserve" y="228.5352" clip-path="url(#clipPath2)" font-family="sans-serif" stroke="none">Filters</text>
    </g>
    <g fill="url(#linearGradient3)" text-rendering="geometricPrecision" shape-rendering="geometricPrecision" transform="matrix(1,0,0,1,-165,-14)" stroke="url(#linearGradient3)">
      <path d="M235 276.6 C236.8 261 293.2 261 295 276.6 L295 323.4 C293.2 339 236.8 339 235 323.4 Z" stroke="none" clip-path="url(#clipPath2)"/>
    </g>
    <g text-rendering="geometricPrecision" stroke-miterlimit="1.45" shape-rendering="geometricPrecision" transform="matrix(1,0,0,1,-165,-14)" stroke-linecap="butt">
      <path fill="none" d="M235 276.6 C236.8 261 293.2 261 295 276.6 L295 323.4 C293.2 339 236.8 339 235 323.4 Z" clip-path="url(#clipPath2)"/>
      <path fill="none" d="M295 276.6 C293.2 292.2 236.8 292.2 235 276.6" clip-path="url(#clipPath2)"/>
      <text x="248.749" xml:space="preserve" y="304.5352" clip-path="url(#clipPath2)" font-family="sans-serif" stroke="none">Index</text>
    </g>
    <g fill="url(#linearGradient4)" text-rendering="geometricPrecision" shape-rendering="geometricPrecision" transform="matrix(1,0,0,1,-165,-14)" stroke="url(#linearGradient4)">
      <ellipse rx="40" ry="20" clip-path="url(#clipPath2)" cx="265" cy="39.1208" stroke="none"/>
    </g>
    <g text-rendering="geometricPrecision" stroke-miterlimit="1.45" shape-rendering="geometricPrecision" transform="matrix(1,0,0,1,-165,-14)" stroke-linecap="butt">
      <ellipse rx="40" fill="none" ry="20" clip-path="url(#clipPath2)" cx="265" cy="39.1208"/>
      <text x="247.6826" xml:space="preserve" y="43.6559" clip-path="url(#clipPath2)" font-family="sans-serif" stroke="none">Query</text>
    </g>
    <g fill="url(#linearGradient5)" text-rendering="geometricPrecision" shape-rendering="geometricPrecision" transform="matrix(1,0,0,1,-165,-14)" stroke="url(#linearGradient5)">
      <path d="M280 143 L360 143 L360 183 L280 183 Z" stroke="none" clip-path="url(#clipPath2)"/>
    </g>
    <g text-rendering="geometricPrecision" stroke-miterlimit="1.45" shape-rendering="geometricPrecision" transform="matrix(1,0,0,1,-165,-14)" stroke-linecap="butt">
      <path fill="none" d="M280 143 L360 143 L360 183 L280 183 Z" clip-path="url(#clipPath2)"/>
      <text x="290.9756" xml:space="preserve" y="167.5352" clip-path="url(#clipPath2)" font-family="sans-serif" stroke="none">Tokenizer</text>
    </g>
    <g fill="url(#linearGradient6)" text-rendering="geometricPrecision" shape-rendering="geometricPrecision" transform="matrix(1,0,0,1,-165,-14)" stroke="url(#linearGradient6)">
      <path d="M280 204 L360 204 L360 244 L280 244 Z" stroke="none" clip-path="url(#clipPath2)"/>
    </g>
    <g text-rendering="geometricPrecision" stroke-miterlimit="1.45" shape-rendering="geometricPrecision" transform="matrix(1,0,0,1,-165,-14)" stroke-linecap="butt">
      <path fill="none" d="M280 204 L360 204 L360 244 L280 244 Z" clip-path="url(#clipPath2)"/>
      <text x="302.2139" xml:space="preserve" y="228.5352" clip-path="url(#clipPath2)" font-family="sans-serif" stroke="none">Filters</text>
    </g>
    <g fill="url(#linearGradient7)" text-rendering="geometricPrecision" shape-rendering="geometricPrecision" transform="matrix(1,0,0,1,-165,-14)" stroke="url(#linearGradient7)">
      <path d="M225 81.0604 L305 81.0604 L305 121.0604 L225 121.0604 Z" stroke="none" clip-path="url(#clipPath2)"/>
    </g>
    <g text-rendering="geometricPrecision" stroke-miterlimit="1.45" shape-rendering="geometricPrecision" transform="matrix(1,0,0,1,-165,-14)" stroke-linecap="butt">
      <path fill="none" d="M225 81.0604 L305 81.0604 L305 121.0604 L225 121.0604 Z" clip-path="url(#clipPath2)"/>
      <text x="227.8428" xml:space="preserve" y="105.5955" clip-path="url(#clipPath2)" font-family="sans-serif" stroke="none">Query Parser</text>
    </g>
    <g text-rendering="geometricPrecision" stroke-miterlimit="1.45" shape-rendering="geometricPrecision" transform="matrix(1,0,0,1,-165,-14)" stroke-linecap="butt">
      <path fill="none" d="M210 182.9858 L210 196.0136" clip-path="url(#clipPath2)"/>
    </g>
    <g text-rendering="geometricPrecision" stroke-miterlimit="1.45" shape-rendering="geometricPrecision" transform="matrix(1,0,0,1,-165,-14)" stroke-linecap="butt">
      <path d="M210 204.0136 L215 192.0136 L210 195.0136 L205 192.0136 Z" stroke="none" clip-path="url(#clipPath2)"/>
      <path fill="none" d="M224.4751 244.002 L237.7323 262.3209" clip-path="url(#clipPath2)"/>
      <path d="M242.4224 268.8018 L239.4378 256.1491 L237.146 261.5108 L231.3366 262.0118 Z" clip-path="url(#clipPath2)" stroke="none"/>
      <path fill="none" d="M320 182.9858 L320 196.0136" clip-path="url(#clipPath2)"/>
      <path d="M320 204.0136 L325 192.0136 L320 195.0136 L315 192.0136 Z" clip-path="url(#clipPath2)" stroke="none"/>
      <path fill="none" d="M305.5249 244.002 L292.2677 262.3209" clip-path="url(#clipPath2)"/>
      <path d="M287.5776 268.8019 L298.6634 262.0118 L292.854 261.5108 L290.5622 256.1491 Z" clip-path="url(#clipPath2)" stroke="none"/>
      <path fill="none" d="M265 59.112 L265 73.0284" clip-path="url(#clipPath2)"/>
      <path d="M265 81.0284 L270 69.0284 L265 72.0284 L260 69.0284 Z" clip-path="url(#clipPath2)" stroke="none"/>
      <path fill="none" d="M247.2485 121.0516 L233.0813 137.0065" clip-path="url(#clipPath2)"/>
      <path d="M227.7694 142.9885 L239.4759 137.3353 L233.7452 136.2587 L231.9984 130.6956 Z" clip-path="url(#clipPath2)" stroke="none"/>
      <path fill="none" d="M282.7515 121.0516 L296.9187 137.0065" clip-path="url(#clipPath2)"/>
      <path d="M302.2306 142.9885 L298.0016 130.6956 L296.2548 136.2587 L290.5241 137.3354 Z" clip-path="url(#clipPath2)" stroke="none"/>
    </g>
  </g>
</svg>
