<?xml version="1.0" encoding="UTF-8"?><svg xmlns="http://www.w3.org/2000/svg" xmlns:xlink="http://www.w3.org/1999/xlink" fill-opacity="1" color-rendering="auto" color-interpolation="auto" text-rendering="auto" stroke="black" stroke-linecap="square" width="525" stroke-miterlimit="10" shape-rendering="auto" stroke-opacity="1" fill="black" stroke-dasharray="none" font-weight="normal" stroke-width="1" height="308" font-family="'Dialog'" font-style="normal" stroke-linejoin="miter" font-size="12px" stroke-dashoffset="0" image-rendering="auto">
  <!--Generated by ySVG 2.5-->
  <defs id="genericDefs"/>
  <g>
    <defs id="defs1">
      <linearGradient x1="144" gradientUnits="userSpaceOnUse" x2="250" y1="73" y2="113" id="linearGradient1" spreadMethod="reflect">
        <stop stop-opacity="1" stop-color="rgb(232,238,247)" offset="0%"/>
        <stop stop-opacity="1" stop-color="rgb(183,201,227)" offset="100%"/>
      </linearGradient>
      <linearGradient x1="144" gradientUnits="userSpaceOnUse" x2="250" y1="138" y2="178" id="linearGradient2" spreadMethod="reflect">
        <stop stop-opacity="1" stop-color="rgb(232,238,247)" offset="0%"/>
        <stop stop-opacity="1" stop-color="rgb(183,201,227)" offset="100%"/>
      </linearGradient>
      <linearGradient x1="167" gradientUnits="userSpaceOnUse" x2="227" y1="203" y2="281" id="linearGradient3" spreadMethod="reflect">
        <stop stop-opacity="1" stop-color="rgb(232,238,247)" offset="0%"/>
        <stop stop-opacity="1" stop-color="rgb(183,201,227)" offset="100%"/>
      </linearGradient>
      <linearGradient x1="225" gradientUnits="userSpaceOnUse" x2="305" y1="3" y2="43" id="linearGradient4" spreadMethod="reflect">
        <stop stop-opacity="1" stop-color="rgb(232,238,247)" offset="0%"/>
        <stop stop-opacity="1" stop-color="rgb(183,201,227)" offset="100%"/>
      </linearGradient>
      <linearGradient x1="280" gradientUnits="userSpaceOnUse" x2="386" y1="73" y2="113" id="linearGradient5" spreadMethod="reflect">
        <stop stop-opacity="1" stop-color="rgb(232,238,247)" offset="0%"/>
        <stop stop-opacity="1" stop-color="rgb(183,201,227)" offset="100%"/>
      </linearGradient>
      <linearGradient x1="280" gradientUnits="userSpaceOnUse" x2="386" y1="138" y2="178" id="linearGradient6" spreadMethod="reflect">
        <stop stop-opacity="1" stop-color="rgb(232,238,247)" offset="0%"/>
        <stop stop-opacity="1" stop-color="rgb(183,201,227)" offset="100%"/>
      </linearGradient>
      <linearGradient x1="19" gradientUnits="userSpaceOnUse" x2="99" y1="73" y2="113" id="linearGradient7" spreadMethod="reflect">
        <stop stop-opacity="1" stop-color="rgb(232,238,247)" offset="0%"/>
        <stop stop-opacity="1" stop-color="rgb(183,201,227)" offset="100%"/>
      </linearGradient>
      <linearGradient x1="19" gradientUnits="userSpaceOnUse" x2="99" y1="138" y2="178" id="linearGradient8" spreadMethod="reflect">
        <stop stop-opacity="1" stop-color="rgb(232,238,247)" offset="0%"/>
        <stop stop-opacity="1" stop-color="rgb(183,201,227)" offset="100%"/>
      </linearGradient>
      <linearGradient x1="421" gradientUnits="userSpaceOnUse" x2="501" y1="222" y2="262" id="linearGradient9" spreadMethod="reflect">
        <stop stop-opacity="1" stop-color="rgb(232,238,247)" offset="0%"/>
        <stop stop-opacity="1" stop-color="rgb(183,201,227)" offset="100%"/>
      </linearGradient>
      <linearGradient x1="293" gradientUnits="userSpaceOnUse" x2="373" y1="222" y2="262" id="linearGradient10" spreadMethod="reflect">
        <stop stop-opacity="1" stop-color="rgb(232,238,247)" offset="0%"/>
        <stop stop-opacity="1" stop-color="rgb(183,201,227)" offset="100%"/>
      </linearGradient>
      <linearGradient x1="408" gradientUnits="userSpaceOnUse" x2="514" y1="73" y2="113" id="linearGradient11" spreadMethod="reflect">
        <stop stop-opacity="1" stop-color="rgb(232,238,247)" offset="0%"/>
        <stop stop-opacity="1" stop-color="rgb(183,201,227)" offset="100%"/>
      </linearGradient>
      <linearGradient x1="408" gradientUnits="userSpaceOnUse" x2="514" y1="138" y2="178" id="linearGradient12" spreadMethod="reflect">
        <stop stop-opacity="1" stop-color="rgb(232,238,247)" offset="0%"/>
        <stop stop-opacity="1" stop-color="rgb(183,201,227)" offset="100%"/>
      </linearGradient>
      <clipPath clipPathUnits="userSpaceOnUse" id="clipPath1">
        <path d="M0 0 L525 0 L525 308 L0 308 L0 0 Z"/>
      </clipPath>
      <clipPath clipPathUnits="userSpaceOnUse" id="clipPath2">
        <path d="M4 -12 L529 -12 L529 296 L4 296 L4 -12 Z"/>
      </clipPath>
    </defs>
    <g fill="white" text-rendering="geometricPrecision" shape-rendering="geometricPrecision" transform="translate(-4,12)" stroke="white">
      <rect x="4" width="525" height="308" y="-12" clip-path="url(#clipPath2)" stroke="none"/>
    </g>
    <g fill="url(#linearGradient1)" text-rendering="geometricPrecision" shape-rendering="geometricPrecision" transform="matrix(1,0,0,1,-4,12)" stroke="url(#linearGradient1)">
      <path d="M144 73 L250 73 L250 113 L144 113 Z" stroke="none" clip-path="url(#clipPath2)"/>
    </g>
    <g text-rendering="geometricPrecision" stroke-miterlimit="1.45" shape-rendering="geometricPrecision" transform="matrix(1,0,0,1,-4,12)" stroke-linecap="butt">
      <path fill="none" d="M144 73 L250 73 L250 113 L144 113 Z" clip-path="url(#clipPath2)"/>
      <text x="161.7412" xml:space="preserve" y="97.5352" clip-path="url(#clipPath2)" font-family="sans-serif" stroke="none">QueryParser</text>
    </g>
    <g fill="url(#linearGradient2)" text-rendering="geometricPrecision" shape-rendering="geometricPrecision" transform="matrix(1,0,0,1,-4,12)" stroke="url(#linearGradient2)">
      <path d="M144 138 L250 138 L250 178 L144 178 Z" stroke="none" clip-path="url(#clipPath2)"/>
    </g>
    <g text-rendering="geometricPrecision" stroke-miterlimit="1.45" shape-rendering="geometricPrecision" transform="matrix(1,0,0,1,-4,12)" stroke-linecap="butt">
      <path fill="none" d="M144 138 L250 138 L250 178 L144 178 Z" clip-path="url(#clipPath2)"/>
      <text x="145.748" xml:space="preserve" y="162.5352" clip-path="url(#clipPath2)" font-family="sans-serif" stroke="none">QueryComponent</text>
    </g>
    <g fill="url(#linearGradient3)" text-rendering="geometricPrecision" shape-rendering="geometricPrecision" transform="matrix(1,0,0,1,-4,12)" stroke="url(#linearGradient3)">
      <path d="M167 218.6 C168.8 203 225.2 203 227 218.6 L227 265.4 C225.2 281 168.8 281 167 265.4 Z" stroke="none" clip-path="url(#clipPath2)"/>
    </g>
    <g text-rendering="geometricPrecision" stroke-miterlimit="1.45" shape-rendering="geometricPrecision" transform="matrix(1,0,0,1,-4,12)" stroke-linecap="butt">
      <path fill="none" d="M167 218.6 C168.8 203 225.2 203 227 218.6 L227 265.4 C225.2 281 168.8 281 167 265.4 Z" clip-path="url(#clipPath2)"/>
      <path fill="none" d="M227 218.6 C225.2 234.2 168.8 234.2 167 218.6" clip-path="url(#clipPath2)"/>
      <text x="180.749" xml:space="preserve" y="246.5352" clip-path="url(#clipPath2)" font-family="sans-serif" stroke="none">Index</text>
    </g>
    <g fill="url(#linearGradient4)" text-rendering="geometricPrecision" shape-rendering="geometricPrecision" transform="matrix(1,0,0,1,-4,12)" stroke="url(#linearGradient4)">
      <ellipse rx="40" ry="20" clip-path="url(#clipPath2)" cx="265" cy="23" stroke="none"/>
    </g>
    <g text-rendering="geometricPrecision" stroke-miterlimit="1.45" shape-rendering="geometricPrecision" transform="matrix(1,0,0,1,-4,12)" stroke-linecap="butt">
      <ellipse rx="40" fill="none" ry="20" clip-path="url(#clipPath2)" cx="265" cy="23"/>
      <text x="241.9287" xml:space="preserve" y="27.5352" clip-path="url(#clipPath2)" font-family="sans-serif" stroke="none">Browser</text>
    </g>
    <g fill="url(#linearGradient5)" text-rendering="geometricPrecision" shape-rendering="geometricPrecision" transform="matrix(1,0,0,1,-4,12)" stroke="url(#linearGradient5)">
      <path d="M280 73 L386 73 L386 113 L280 113 Z" stroke="none" clip-path="url(#clipPath2)"/>
    </g>
    <g text-rendering="geometricPrecision" stroke-miterlimit="1.45" shape-rendering="geometricPrecision" transform="matrix(1,0,0,1,-4,12)" stroke-linecap="butt">
      <path fill="none" d="M280 73 L386 73 L386 113 L280 113 Z" clip-path="url(#clipPath2)"/>
      <text x="287.8535" xml:space="preserve" y="97.5352" clip-path="url(#clipPath2)" font-family="sans-serif" stroke="none">ResponseWriter</text>
    </g>
    <g fill="url(#linearGradient6)" text-rendering="geometricPrecision" shape-rendering="geometricPrecision" transform="matrix(1,0,0,1,-4,12)" stroke="url(#linearGradient6)">
      <path d="M280 138 L386 138 L386 178 L280 178 Z" stroke="none" clip-path="url(#clipPath2)"/>
    </g>
    <g text-rendering="geometricPrecision" stroke-miterlimit="1.45" shape-rendering="geometricPrecision" transform="matrix(1,0,0,1,-4,12)" stroke-linecap="butt">
      <path fill="none" d="M280 138 L386 138 L386 178 L280 178 Z" clip-path="url(#clipPath2)"/>
      <text x="313.8604" xml:space="preserve" y="155.4688" clip-path="url(#clipPath2)" font-family="sans-serif" stroke="none">Search</text>
      <text x="292.1045" xml:space="preserve" y="169.6016" clip-path="url(#clipPath2)" font-family="sans-serif" stroke="none">Component(s)</text>
    </g>
    <g fill="url(#linearGradient7)" text-rendering="geometricPrecision" shape-rendering="geometricPrecision" transform="matrix(1,0,0,1,-4,12)" stroke="url(#linearGradient7)">
      <path d="M19 73 L99 73 L99 113 L19 113 Z" stroke="none" clip-path="url(#clipPath2)"/>
    </g>
    <g text-rendering="geometricPrecision" stroke-miterlimit="1.45" shape-rendering="geometricPrecision" transform="matrix(1,0,0,1,-4,12)" stroke-linecap="butt">
      <path fill="none" d="M19 73 L99 73 L99 113 L19 113 Z" clip-path="url(#clipPath2)"/>
      <text x="29.9756" xml:space="preserve" y="97.5352" clip-path="url(#clipPath2)" font-family="sans-serif" stroke="none">Tokenizer</text>
    </g>
    <g fill="url(#linearGradient8)" text-rendering="geometricPrecision" shape-rendering="geometricPrecision" transform="matrix(1,0,0,1,-4,12)" stroke="url(#linearGradient8)">
      <path d="M19 138 L99 138 L99 178 L19 178 Z" stroke="none" clip-path="url(#clipPath2)"/>
    </g>
    <g text-rendering="geometricPrecision" stroke-miterlimit="1.45" shape-rendering="geometricPrecision" transform="matrix(1,0,0,1,-4,12)" stroke-linecap="butt">
      <path fill="none" d="M19 138 L99 138 L99 178 L19 178 Z" clip-path="url(#clipPath2)"/>
      <text x="41.2139" xml:space="preserve" y="162.5352" clip-path="url(#clipPath2)" font-family="sans-serif" stroke="none">Filters</text>
    </g>
    <g fill="url(#linearGradient9)" text-rendering="geometricPrecision" shape-rendering="geometricPrecision" transform="matrix(1,0,0,1,-4,12)" stroke="url(#linearGradient9)">
      <path d="M421 222 L501 222 L501 262 L421 262 Z" stroke="none" clip-path="url(#clipPath2)"/>
    </g>
    <g text-rendering="geometricPrecision" stroke-miterlimit="1.45" shape-rendering="geometricPrecision" transform="matrix(1,0,0,1,-4,12)" stroke-linecap="butt">
      <path fill="none" d="M421 222 L501 222 L501 262 L421 262 Z" clip-path="url(#clipPath2)"/>
      <text x="431.9756" xml:space="preserve" y="246.5352" clip-path="url(#clipPath2)" font-family="sans-serif" stroke="none">Tokenizer</text>
    </g>
    <g fill="url(#linearGradient10)" text-rendering="geometricPrecision" shape-rendering="geometricPrecision" transform="matrix(1,0,0,1,-4,12)" stroke="url(#linearGradient10)">
      <path d="M293 222 L373 222 L373 262 L293 262 Z" stroke="none" clip-path="url(#clipPath2)"/>
    </g>
    <g text-rendering="geometricPrecision" stroke-miterlimit="1.45" shape-rendering="geometricPrecision" transform="matrix(1,0,0,1,-4,12)" stroke-linecap="butt">
      <path fill="none" d="M293 222 L373 222 L373 262 L293 262 Z" clip-path="url(#clipPath2)"/>
      <text x="315.2139" xml:space="preserve" y="246.5352" clip-path="url(#clipPath2)" font-family="sans-serif" stroke="none">Filters</text>
    </g>
    <g fill="url(#linearGradient11)" text-rendering="geometricPrecision" shape-rendering="geometricPrecision" transform="matrix(1,0,0,1,-4,12)" stroke="url(#linearGradient11)">
      <path d="M408 73 L514 73 L514 113 L408 113 Z" stroke="none" clip-path="url(#clipPath2)"/>
    </g>
    <g text-rendering="geometricPrecision" stroke-miterlimit="1.45" shape-rendering="geometricPrecision" transform="matrix(1,0,0,1,-4,12)" stroke-linecap="butt">
      <path fill="none" d="M408 73 L514 73 L514 113 L408 113 Z" clip-path="url(#clipPath2)"/>
      <text x="417.6348" xml:space="preserve" y="97.5352" clip-path="url(#clipPath2)" font-family="sans-serif" stroke="none">UpdateHandler</text>
    </g>
    <g fill="url(#linearGradient12)" text-rendering="geometricPrecision" shape-rendering="geometricPrecision" transform="matrix(1,0,0,1,-4,12)" stroke="url(#linearGradient12)">
      <path d="M408 138 L514 138 L514 178 L408 178 Z" stroke="none" clip-path="url(#clipPath2)"/>
    </g>
    <g text-rendering="geometricPrecision" stroke-miterlimit="1.45" shape-rendering="geometricPrecision" transform="matrix(1,0,0,1,-4,12)" stroke-linecap="butt">
      <path fill="none" d="M408 138 L514 138 L514 178 L408 178 Z" clip-path="url(#clipPath2)"/>
      <text x="412.2588" xml:space="preserve" y="162.5352" clip-path="url(#clipPath2)" font-family="sans-serif" stroke="none">UpdateProcessor</text>
    </g>
    <g text-rendering="geometricPrecision" stroke-miterlimit="1.45" shape-rendering="geometricPrecision" transform="matrix(1,0,0,1,-4,12)" stroke-linecap="butt">
      <path fill="none" d="M197 113.0269 L197 130.0168" clip-path="url(#clipPath2)"/>
    </g>
    <g text-rendering="geometricPrecision" stroke-miterlimit="1.45" shape-rendering="geometricPrecision" transform="matrix(1,0,0,1,-4,12)" stroke-linecap="butt">
      <path d="M197 138.0168 L202 126.0168 L197 129.0168 L192 126.0168 Z" stroke="none" clip-path="url(#clipPath2)"/>
      <path fill="none" d="M197 177.9746 L197 198.8923" clip-path="url(#clipPath2)"/>
      <path d="M197 206.8923 L202 194.8923 L197 197.8923 L192 194.8923 Z" clip-path="url(#clipPath2)" stroke="none"/>
      <path fill="none" d="M247.502 41.0127 L221.981 67.2842" clip-path="url(#clipPath2)"/>
      <path d="M216.4068 73.0224 L228.3546 67.899 L222.6778 66.5669 L221.1818 60.9312 Z" clip-path="url(#clipPath2)" stroke="none"/>
      <path fill="none" d="M313.5762 73.0049 L288.0551 46.7332" clip-path="url(#clipPath2)"/>
      <path d="M282.4808 40.9949 L287.2558 53.0862 L288.7518 47.4504 L294.4286 46.1184 Z" clip-path="url(#clipPath2)" stroke="none"/>
      <path fill="none" d="M250.0254 158 L271.9659 158" clip-path="url(#clipPath2)"/>
      <path d="M279.9659 158 L267.9659 153 L270.9659 158 L267.9659 163 Z" clip-path="url(#clipPath2)" stroke="none"/>
      <path fill="none" d="M333 137.9731 L333 120.9832" clip-path="url(#clipPath2)"/>
      <path d="M333 112.9832 L328 124.9832 L333 121.9832 L338 124.9832 Z" clip-path="url(#clipPath2)" stroke="none"/>
      <path fill="none" d="M154.5151 137.989 L106.2297 115.2459" clip-path="url(#clipPath2)"/>
      <path d="M98.9923 111.837 L107.7178 121.4737 L107.1343 115.672 L111.9789 112.427 Z" clip-path="url(#clipPath2)" stroke="none"/>
      <path fill="none" d="M59 113.0269 L59 130.0168" clip-path="url(#clipPath2)"/>
      <path d="M59 138.0168 L64 126.0168 L59 129.0168 L54 126.0168 Z" clip-path="url(#clipPath2)" stroke="none"/>
      <path fill="none" d="M98.9917 158 L136.0238 158" clip-path="url(#clipPath2)"/>
      <path d="M144.0238 158 L132.0238 153 L135.0238 158 L132.0238 163 Z" clip-path="url(#clipPath2)" stroke="none"/>
      <path fill="none" d="M420.9688 242 L380.9897 242" clip-path="url(#clipPath2)"/>
      <path d="M372.9897 242 L384.9897 247 L381.9897 242 L384.9897 237 Z" clip-path="url(#clipPath2)" stroke="none"/>
      <path fill="none" d="M292.9902 242 L235.0438 242" clip-path="url(#clipPath2)"/>
      <path d="M227.0438 242 L239.0438 247 L236.0438 242 L239.0438 237 Z" clip-path="url(#clipPath2)" stroke="none"/>
      <path fill="none" d="M461 113.0269 L461 130.0168" clip-path="url(#clipPath2)"/>
      <path d="M461 138.0168 L466 126.0168 L461 129.0168 L456 126.0168 Z" clip-path="url(#clipPath2)" stroke="none"/>
      <path fill="none" d="M461 177.9746 L461 214.0233" clip-path="url(#clipPath2)"/>
      <path d="M461 222.0233 L466 210.0233 L461 213.0233 L456 210.0233 Z" clip-path="url(#clipPath2)" stroke="none"/>
    </g>
  </g>
</svg>
