<?xml version="1.0" encoding="UTF-8" standalone="no"?>
<svg
   xmlns:dc="http://purl.org/dc/elements/1.1/"
   xmlns:cc="http://creativecommons.org/ns#"
   xmlns:rdf="http://www.w3.org/1999/02/22-rdf-syntax-ns#"
   xmlns:svg="http://www.w3.org/2000/svg"
   xmlns="http://www.w3.org/2000/svg"
   viewBox="0 0 687.42499 180.1375"
   height="180.1375"
   width="687.42499"
   xml:space="preserve"
   version="1.1"
   id="svg2"><metadata
     id="metadata8"><rdf:RDF><cc:Work
         rdf:about=""><dc:format>image/svg+xml</dc:format><dc:type
           rdf:resource="http://purl.org/dc/dcmitype/StillImage" /><dc:title></dc:title></cc:Work></rdf:RDF></metadata><defs
     id="defs6" /><g
     transform="matrix(1.25,0,0,-1.25,0,180.1375)"
     id="g10"><g
       transform="scale(0.1,0.1)"
       id="g12"><path
         id="path14"
         style="fill:#85868a;fill-opacity:1;fill-rule:nonzero;stroke:none"
         d="m 5409.45,588.031 0,275 c 0,122 -90,193.999 -219,193.999 -117,0 -212,-74.999 -212,-207.999 l 0,-265 c 0,-123 91,-198 217,-198 116,0 214,70 214,202 z m -521,-14 0,274 c 0,181.999 140,289.999 305,289.999 171,0 306,-102 306,-277.999 l 0,-265 c 0,-181 -138,-290 -304,-290 -168,0 -307,93 -307,269 z m -273,547.999 91,0 0,-802.999 -91,0 0,802.999 z m -428,-724.999 c 98,0 172,48 172,151 0,101 -74,145 -173,145 l -206,0 0,-296 207,0 z m -15,372 c 90,0 165,45 165,141 0,95.999 -69,134.999 -160,134.999 l -198,0 0,-275.999 193,0 z m -284,353.999 308,0 c 140,0 230,-68 230,-198.999 0,-84 -50,-158 -140,-183 l 0,-1 c 107,-19 163,-101 163,-196 0,-151 -119,-224 -244,-224 l -317,0 0,802.999 z m -924,-1 111,0 252,-491.999 1,0 247,491.999 113,0 0,-802.999 -88,0 0,644 -2,0 -235,-458 -72,0 -235,457 -3,0 0,-643 -88,0 0,802.999 -1,0 z m -438,-468.999 -260,467.999 100,0 206,-379.999 204,379.999 99,0 -261,-468.999 0,-333 -88,0 0,334 z m -871,-155 83,30 c 32,-90 113,-143 222,-143 106,0 191,52 191,144 0,86 -53,120 -124,143 l -152,43 c -113,32 -178,90 -178,205 0,132.999 113,215.999 258,215.999 124,0 227,-46 269,-151.999 l -79,-32 c -35,68.999 -100,106.999 -191,106.999 -82,0 -167,-42 -167,-131.999 0,-63 38,-107 133,-135 l 153,-43 c 95,-26 167,-84 167,-212 0,-137 -114,-233 -285,-233 -146,2 -263,68 -300,194" /><path
         id="path16"
         style="fill:#f47315;fill-opacity:1;fill-rule:nonzero;stroke:none"
         d="m 1205.45,122.031 c -177,-113.99975 -413.005,-63.9997 -527.005,113 l -193,298 87,56 193,-298 c 53,-81 141,-126 231,-127 53.005,-1 106.005,14 154.005,45 62,40 105,103 121,175 16,73 2,147 -38,209 l -15,22 21,13 c 22,14 43,31 62,49 l 18,-28 c 113,-176 63,-412 -114,-527 z M 361.445,70.0313 c -100,21 -185,79.9997 -240,165.9997 -113.99969,176 -63.9997,413 113,527 l 298,193 56,-87 -298,-193 c -62,-40 -105,-103 -121,-175 -16,-73 -2,-147 38,-209 40,-62 103,-105 175,-121 19,-4 37,-6 56,-6 54,-1 107,15 153,45 l 22,14 14,-21 c 15,-22 31,-43 49,-62 l -28,-18 c -86,-55.9997 -187,-74.9997 -287,-52.9997 z m -128,1249.9987 c 176,114 413,64 527,-113 l 193,-297.999 -87,-56 -193,297.999 c -83,129 -256,165 -384,82 -62,-40 -105,-103 -121,-175 -16,-72.999 -2,-146.999 38,-208.999 l 15,-22 -21,-13 c -23,-15 -43,-31 -62,-49 l -18,28 c -113.99969,176 -62.9997,412.999 113,526.999 z m 795.005,-826.999 15,-22 c 8,-12 10,-26 7,-39 -3,-14 -11,-25 -23,-33 -24,-16 -57.005,-9 -73.005,16 l -15,22 89.005,56 z m -24,449 -57.005,87.999 22,14 c 12,8 26,10 40.005,7 14,-3 25,-11 33,-23 16,-24 9,-56.999 -16,-72.999 l -22,-13 z m -130.005,-157 0,0 185.005,120 c 52,34 67,103.999 33,155.999 -16,25 -42,43 -71,49 -29.005,6 -60.005,1 -85.005,-16 l -22,-14 -57,88 22,14 c 49,32 107,42 164.005,30 57,-12 105,-46 137,-94 32,-49 42,-107 30,-163.999 -12,-57 -46,-105 -94,-137 l -437.005,-283 -57,88 252,163 z m -339,275.999 c -16,25 -42,43 -71,49 -29,6 -60,1 -85,-16 -52,-34 -67,-103.999 -33,-155.999 l 15,-22 -88,-57 -15,22 c -32,49 -42,107 -30,163.999 12,57 46,105 94,137 101,65 235,36 301,-64 l 103,-159.999 -88,-57 -103,159.999 z m -124,-111.999 -15,22 c -16,24 -9,56.999 16,72.999 12,8 26,10 40,7 14,-3 25,-11 33,-23 l 15,-22 -89,-56.999 z m -32,-412 c -52,-34 -67,-104 -33,-156 16,-25 42,-43 71,-49 8,-2 15,-2 23,-3 22,0 43,6 62,18 l 22,14 57,-88 -22,-14 c -49,-32 -107,-42 -164,-30 -57,12 -105,46 -137,94 -32,49 -42,107 -30,164 12,57 46,105 94,137 l 437,283 57,-88 -437,-282 z m 55,-36 57,-88 -22,-14 c -24,-16 -57,-9 -73,15 -16,24 -9,57 16,73 l 22,14 z m 747.005,59 c 32,-49 42,-107 30,-164 -12,-57 -46,-105 -94,-137 -101,-65 -235.005,-36 -301.005,64 l -103,160 88,57 103,-160 c 16,-25 42,-43 71,-49 8,-2 15,-2 23,-3 22.005,0 43.005,6 62.005,18 25,16 43,42 49,71 6,29 1,60 -16,85 l -15,22 88,57 15,-21 z m -104,812.999 c 100,-21 185,-80 240,-166 114,-176 64,-412.999 -113,-526.999 l -298.005,-193 -56,87 298.005,193 c 62,40 105,103 121,175 16,72.999 2,146.999 -38,208.999 -40,62 -103,105 -175,121 -73.005,16 -147.005,2 -209.005,-38 l -22,-14 -14,21 c -15,22 -31,43 -49,62 l 28,18 c 86,54 188,73 287.005,52 z m 292,-690.999 -27,41 c 43,53 73,116 87,184 25,114.999 3,232.999 -61,331.999 -64,99 -163,167 -278,192 -115.005,25 -233.005,3 -332.005,-61 l -41,-26 c -144,116 -353,132 -516,26 C -2.55469,1238.03 -61.5547,964.031 70.4453,759.031 l 27,-41 c -116,-144 -132,-353 -26,-516 63.9997,-99 162.9997,-166.9997 277.9997,-191.9997 29,-6.00005 59,-10.00005 89,-10.00005 86,-1 170,23.00005 244,71.00005 l 41,26 c 78,-62 174,-96.00005 272,-97.00005 84.005,-1 169.005,22.00005 244.005,71.00005 203,132.9997 262,406.9997 130,610.9997" /></g></g></svg>