<?xml version="1.0" encoding="UTF-8" standalone="no"?>
<svg
   xmlns:dc="http://purl.org/dc/elements/1.1/"
   xmlns:cc="http://creativecommons.org/ns#"
   xmlns:rdf="http://www.w3.org/1999/02/22-rdf-syntax-ns#"
   xmlns:svg="http://www.w3.org/2000/svg"
   xmlns="http://www.w3.org/2000/svg"
   xmlns:sodipodi="http://sodipodi.sourceforge.net/DTD/sodipodi-0.dtd"
   xmlns:inkscape="http://www.inkscape.org/namespaces/inkscape"
   viewBox="0 0 255.12427 59.999999"
   height="60"
   width="255.12427"
   xml:space="preserve"
   version="1.1"
   id="svg2"
   inkscape:version="0.91 r13725"
   sodipodi:docname="sysart.svg"><sodipodi:namedview
     pagecolor="#ffffff"
     bordercolor="#666666"
     borderopacity="1"
     objecttolerance="10"
     gridtolerance="10"
     guidetolerance="10"
     inkscape:pageopacity="0"
     inkscape:pageshadow="2"
     inkscape:window-width="1201"
     inkscape:window-height="709"
     id="namedview3350"
     showgrid="false"
     fit-margin-top="0"
     fit-margin-left="0"
     fit-margin-right="0"
     fit-margin-bottom="0"
     inkscape:zoom="1.4100696"
     inkscape:cx="287.17448"
     inkscape:cy="91.812563"
     inkscape:window-x="0"
     inkscape:window-y="0"
     inkscape:window-maximized="0"
     inkscape:current-layer="svg2" /><metadata
     id="metadata8"><rdf:RDF><cc:Work
         rdf:about=""><dc:format>image/svg+xml</dc:format><dc:type
           rdf:resource="http://purl.org/dc/dcmitype/StillImage" /><dc:title></dc:title></cc:Work></rdf:RDF></metadata><defs
     id="defs6"><clipPath
       id="clipPath18"
       clipPathUnits="userSpaceOnUse"><path
         id="path20"
         d="m 3932.4,1186.98 c -80.21,51.25 -178.26,82.48 -296.38,82.48 -292.02,0 -537.11,-240.7 -537.11,-563.882 0,-320.941 245.09,-563.851 537.11,-563.851 118.12,0 216.17,31.234 296.38,82.421 l 0,-60.152 361.06,0 0,1080.934 -361.06,0 0,-57.95 z m 0,-648.554 c -66.85,-78.008 -144.86,-100.27 -225.11,-100.27 -147.06,0 -254.01,118.125 -254.01,267.422 0,149.332 106.95,269.645 254.01,269.645 80.25,0 158.26,-24.493 225.11,-102.461 l 0,-334.336 z m 823.62,601.774 c 95.82,82.46 211.71,133.71 372.14,133.71 l 0,-343.219 c -176.05,-6.66 -287.48,-53.457 -372.14,-138.16 l 0,-617.363 -361.08,0 0,1080.932 361.08,0 0,-115.9 z M 2114.94,1256.1 1587.91,2.78516 l -378.18,0 162.37,389.85984 -404.87,864.295 382.52,0 202.81,-436.366 183.55,435.526 378.83,0 z M 1043.75,507.254 c 0,-249.57 -225.098,-365.527 -505.895,-365.527 -283.074,0 -512.6167,118.148 -534.84328,405.625 L 323.898,545.145 c 15.594,-93.594 93.582,-135.957 207.27,-135.957 95.828,0 153.773,28.984 153.773,75.804 0,35.641 -33.437,64.606 -104.793,75.738 L 361.777,598.641 C 174.57,629.852 45.3047,734.559 45.3047,924.031 c 0,227.329 193.8943,361.059 481.4183,361.059 229.539,0 490.267,-89.14 505.847,-374.418 l -320.84,0 c -6.726,82.48 -82.492,120.288 -182.765,120.288 -93.641,0 -135.973,-35.62 -135.973,-77.944 0,-35.68 26.731,-69.082 111.387,-84.688 L 707.207,834.891 C 910.035,797.02 1043.75,698.918 1043.75,507.254 Z m 2024.73,0 c 0,-249.57 -225.1,-365.527 -505.89,-365.527 -283.08,0 -512.61,118.148 -534.85,405.625 l 320.89,-2.207 c 15.59,-93.594 93.58,-135.957 207.27,-135.957 95.83,0 153.77,28.984 153.77,75.804 0,35.641 -33.44,64.606 -104.79,75.738 l -218.37,37.911 c -187.21,31.211 -316.47,135.918 -316.47,325.39 0,227.329 193.89,361.059 481.42,361.059 229.53,0 490.26,-89.14 505.84,-374.418 l -320.84,0 c -6.72,82.48 -82.49,120.288 -182.76,120.288 -93.65,0 -135.97,-35.62 -135.97,-77.944 0,-35.68 26.72,-69.082 111.38,-84.688 l 202.83,-33.437 c 202.83,-37.871 336.54,-135.973 336.54,-327.637 z m 2657.03,438.555 0,-310.079 c 0,-109.355 62.46,-162.812 169.51,-162.812 5.55,0 11.27,0.199 17.01,0.453 l -140,-331.644 C 5526.25,154.66 5364.1,342.707 5364.1,624.598 l 0,321.211 -167.3,0 0,310.101 167.3,0 0,210.35 361.41,0 0,-210.35 516.78,0 -130.88,-310.101 -385.9,0"
         inkscape:connector-curvature="0" /></clipPath><linearGradient
       id="linearGradient22"
       spreadMethod="pad"
       gradientTransform="matrix(-7e-5,-1707.63,-6279.27,2.7e-4,6262.28,1587.1)"
       gradientUnits="userSpaceOnUse"
       y2="0"
       x2="1"
       y1="0"
       x1="0.49022499"><stop
         id="stop24"
         offset="0"
         style="stop-opacity:1;stop-color:#f68a3f" /><stop
         id="stop26"
         offset="1"
         style="stop-opacity:1;stop-color:#f2521b" /></linearGradient></defs><g
     transform="matrix(0.4084283,0,0,-0.4084283,-3.2971042e-5,59.999981)"
     id="g10"><g
       transform="scale(0.1,0.1)"
       id="g12"><g
         id="g14"><g
           clip-path="url(#clipPath18)"
           id="g16"><path
             id="path28"
             style="fill:url(#linearGradient22);fill-opacity:1;fill-rule:nonzero;stroke:none"
             d="m 3932.4,1186.98 c -80.21,51.25 -178.26,82.48 -296.38,82.48 -292.02,0 -537.11,-240.7 -537.11,-563.882 0,-320.941 245.09,-563.851 537.11,-563.851 118.12,0 216.17,31.234 296.38,82.421 l 0,-60.152 361.06,0 0,1080.934 -361.06,0 0,-57.95 z m 0,-648.554 c -66.85,-78.008 -144.86,-100.27 -225.11,-100.27 -147.06,0 -254.01,118.125 -254.01,267.422 0,149.332 106.95,269.645 254.01,269.645 80.25,0 158.26,-24.493 225.11,-102.461 l 0,-334.336 z m 823.62,601.774 c 95.82,82.46 211.71,133.71 372.14,133.71 l 0,-343.219 c -176.05,-6.66 -287.48,-53.457 -372.14,-138.16 l 0,-617.363 -361.08,0 0,1080.932 361.08,0 0,-115.9 z M 2114.94,1256.1 1587.91,2.78516 l -378.18,0 162.37,389.85984 -404.87,864.295 382.52,0 202.81,-436.366 183.55,435.526 378.83,0 z M 1043.75,507.254 c 0,-249.57 -225.098,-365.527 -505.895,-365.527 -283.074,0 -512.6167,118.148 -534.84328,405.625 L 323.898,545.145 c 15.594,-93.594 93.582,-135.957 207.27,-135.957 95.828,0 153.773,28.984 153.773,75.804 0,35.641 -33.437,64.606 -104.793,75.738 L 361.777,598.641 C 174.57,629.852 45.3047,734.559 45.3047,924.031 c 0,227.329 193.8943,361.059 481.4183,361.059 229.539,0 490.267,-89.14 505.847,-374.418 l -320.84,0 c -6.726,82.48 -82.492,120.288 -182.765,120.288 -93.641,0 -135.973,-35.62 -135.973,-77.944 0,-35.68 26.731,-69.082 111.387,-84.688 L 707.207,834.891 C 910.035,797.02 1043.75,698.918 1043.75,507.254 Z m 2024.73,0 c 0,-249.57 -225.1,-365.527 -505.89,-365.527 -283.08,0 -512.61,118.148 -534.85,405.625 l 320.89,-2.207 c 15.59,-93.594 93.58,-135.957 207.27,-135.957 95.83,0 153.77,28.984 153.77,75.804 0,35.641 -33.44,64.606 -104.79,75.738 l -218.37,37.911 c -187.21,31.211 -316.47,135.918 -316.47,325.39 0,227.329 193.89,361.059 481.42,361.059 229.53,0 490.26,-89.14 505.84,-374.418 l -320.84,0 c -6.72,82.48 -82.49,120.288 -182.76,120.288 -93.65,0 -135.97,-35.62 -135.97,-77.944 0,-35.68 26.72,-69.082 111.38,-84.688 l 202.83,-33.437 c 202.83,-37.871 336.54,-135.973 336.54,-327.637 z m 2657.03,438.555 0,-310.079 c 0,-109.355 62.46,-162.812 169.51,-162.812 5.55,0 11.27,0.199 17.01,0.453 l -140,-331.644 C 5526.25,154.66 5364.1,342.707 5364.1,624.598 l 0,321.211 -167.3,0 0,310.101 167.3,0 0,210.35 361.41,0 0,-210.35 516.78,0 -130.88,-310.101 -385.9,0"
             inkscape:connector-curvature="0" /></g></g><path
         id="path30"
         style="fill:none;stroke:#f1511b;stroke-width:5.57123995;stroke-linecap:butt;stroke-linejoin:miter;stroke-miterlimit:10;stroke-dasharray:none;stroke-opacity:1"
         d="m 3932.4,1186.98 c -80.21,51.25 -178.26,82.48 -296.38,82.48 -292.02,0 -537.11,-240.7 -537.11,-563.882 0,-320.941 245.09,-563.851 537.11,-563.851 118.12,0 216.17,31.234 296.38,82.421 l 0,-60.152 361.06,0 0,1080.934 -361.06,0 0,-57.95 z m 0,-648.554 c -66.85,-78.008 -144.86,-100.27 -225.11,-100.27 -147.06,0 -254.01,118.125 -254.01,267.422 0,149.332 106.95,269.645 254.01,269.645 80.25,0 158.26,-24.493 225.11,-102.461 l 0,-334.336 z m 823.62,601.774 c 95.82,82.46 211.71,133.71 372.14,133.71 l 0,-343.219 c -176.05,-6.66 -287.48,-53.457 -372.14,-138.16 l 0,-617.363 -361.08,0 0,1080.932 361.08,0 0,-115.9 z M 2114.94,1256.1 1587.91,2.78516 l -378.18,0 162.37,389.85984 -404.87,864.295 382.52,0 202.81,-436.366 183.55,435.526 378.83,0 z M 1043.75,507.254 c 0,-249.57 -225.098,-365.527 -505.895,-365.527 -283.074,0 -512.6167,118.148 -534.84328,405.625 L 323.898,545.145 c 15.594,-93.594 93.582,-135.957 207.27,-135.957 95.828,0 153.773,28.984 153.773,75.804 0,35.641 -33.437,64.606 -104.793,75.738 L 361.777,598.641 C 174.57,629.852 45.3047,734.559 45.3047,924.031 c 0,227.329 193.8943,361.059 481.4183,361.059 229.539,0 490.267,-89.14 505.847,-374.418 l -320.84,0 c -6.726,82.48 -82.492,120.288 -182.765,120.288 -93.641,0 -135.973,-35.62 -135.973,-77.944 0,-35.68 26.731,-69.082 111.387,-84.688 L 707.207,834.891 C 910.035,797.02 1043.75,698.918 1043.75,507.254 Z m 2024.73,0 c 0,-249.57 -225.1,-365.527 -505.89,-365.527 -283.08,0 -512.61,118.148 -534.85,405.625 l 320.89,-2.207 c 15.59,-93.594 93.58,-135.957 207.27,-135.957 95.83,0 153.77,28.984 153.77,75.804 0,35.641 -33.44,64.606 -104.79,75.738 l -218.37,37.911 c -187.21,31.211 -316.47,135.918 -316.47,325.39 0,227.329 193.89,361.059 481.42,361.059 229.53,0 490.26,-89.14 505.84,-374.418 l -320.84,0 c -6.72,82.48 -82.49,120.288 -182.76,120.288 -93.65,0 -135.97,-35.62 -135.97,-77.944 0,-35.68 26.72,-69.082 111.38,-84.688 l 202.83,-33.437 c 202.83,-37.871 336.54,-135.973 336.54,-327.637 z m 2657.03,438.555 0,-310.079 c 0,-109.355 62.46,-162.812 169.51,-162.812 5.55,0 11.27,0.199 17.01,0.453 l -140,-331.644 C 5526.25,154.66 5364.1,342.707 5364.1,624.598 l 0,321.211 -167.3,0 0,310.101 167.3,0 0,210.35 361.41,0 0,-210.35 516.78,0 -130.88,-310.101 -385.9,0 z"
         inkscape:connector-curvature="0" /></g></g></svg>