<?xml version="1.0" encoding="UTF-8"?><svg xmlns="http://www.w3.org/2000/svg" xmlns:xlink="http://www.w3.org/1999/xlink" fill-opacity="1" color-rendering="auto" color-interpolation="auto" text-rendering="auto" stroke="black" stroke-linecap="square" width="652" stroke-miterlimit="10" shape-rendering="auto" stroke-opacity="1" fill="black" stroke-dasharray="none" font-weight="normal" stroke-width="1" height="388" font-family="'Dialog'" font-style="normal" stroke-linejoin="miter" font-size="12px" stroke-dashoffset="0" image-rendering="auto">
  <!--Generated by ySVG 2.5-->
  <defs id="genericDefs"/>
  <g>
    <defs id="defs1">
      <linearGradient x1="65.3333" gradientUnits="userSpaceOnUse" x2="65.3333" y1="222" y2="239" id="linearGradient1" spreadMethod="pad">
        <stop stop-opacity="1" stop-color="rgb(255,230,191)" offset="0%"/>
        <stop stop-opacity="1" stop-color="rgb(255,173,51)" offset="100%"/>
      </linearGradient>
      <linearGradient x1="87.6667" gradientUnits="userSpaceOnUse" x2="87.6667" y1="386" y2="403" id="linearGradient2" spreadMethod="pad">
        <stop stop-opacity="1" stop-color="rgb(255,230,191)" offset="0%"/>
        <stop stop-opacity="1" stop-color="rgb(255,173,51)" offset="100%"/>
      </linearGradient>
      <linearGradient x1="48.6667" gradientUnits="userSpaceOnUse" x2="48.6667" y1="304" y2="321" id="linearGradient3" spreadMethod="pad">
        <stop stop-opacity="1" stop-color="rgb(255,230,191)" offset="0%"/>
        <stop stop-opacity="1" stop-color="rgb(255,173,51)" offset="100%"/>
      </linearGradient>
      <linearGradient x1="172.3333" gradientUnits="userSpaceOnUse" x2="172.3333" y1="222" y2="239" id="linearGradient4" spreadMethod="pad">
        <stop stop-opacity="1" stop-color="rgb(255,230,191)" offset="0%"/>
        <stop stop-opacity="1" stop-color="rgb(255,173,51)" offset="100%"/>
      </linearGradient>
      <linearGradient x1="214.3333" gradientUnits="userSpaceOnUse" x2="214.3333" y1="304" y2="321" id="linearGradient5" spreadMethod="pad">
        <stop stop-opacity="1" stop-color="rgb(255,230,191)" offset="0%"/>
        <stop stop-opacity="1" stop-color="rgb(255,173,51)" offset="100%"/>
      </linearGradient>
      <linearGradient x1="223.3333" gradientUnits="userSpaceOnUse" x2="223.3333" y1="386" y2="403" id="linearGradient6" spreadMethod="pad">
        <stop stop-opacity="1" stop-color="rgb(255,230,191)" offset="0%"/>
        <stop stop-opacity="1" stop-color="rgb(255,173,51)" offset="100%"/>
      </linearGradient>
      <linearGradient x1="290.6667" gradientUnits="userSpaceOnUse" x2="290.6667" y1="304" y2="321" id="linearGradient7" spreadMethod="pad">
        <stop stop-opacity="1" stop-color="rgb(255,230,191)" offset="0%"/>
        <stop stop-opacity="1" stop-color="rgb(255,173,51)" offset="100%"/>
      </linearGradient>
      <linearGradient x1="331.3333" gradientUnits="userSpaceOnUse" x2="331.3333" y1="386" y2="403" id="linearGradient8" spreadMethod="pad">
        <stop stop-opacity="1" stop-color="rgb(255,230,191)" offset="0%"/>
        <stop stop-opacity="1" stop-color="rgb(255,173,51)" offset="100%"/>
      </linearGradient>
      <linearGradient x1="370" gradientUnits="userSpaceOnUse" x2="370" y1="304" y2="321" id="linearGradient9" spreadMethod="pad">
        <stop stop-opacity="1" stop-color="rgb(255,230,191)" offset="0%"/>
        <stop stop-opacity="1" stop-color="rgb(255,173,51)" offset="100%"/>
      </linearGradient>
      <linearGradient x1="387.6667" gradientUnits="userSpaceOnUse" x2="387.6667" y1="222" y2="239" id="linearGradient10" spreadMethod="pad">
        <stop stop-opacity="1" stop-color="rgb(255,230,191)" offset="0%"/>
        <stop stop-opacity="1" stop-color="rgb(255,173,51)" offset="100%"/>
      </linearGradient>
      <linearGradient x1="445" gradientUnits="userSpaceOnUse" x2="445" y1="386" y2="403" id="linearGradient11" spreadMethod="pad">
        <stop stop-opacity="1" stop-color="rgb(255,230,191)" offset="0%"/>
        <stop stop-opacity="1" stop-color="rgb(255,173,51)" offset="100%"/>
      </linearGradient>
      <linearGradient x1="501.6667" gradientUnits="userSpaceOnUse" x2="501.6667" y1="222" y2="239" id="linearGradient12" spreadMethod="pad">
        <stop stop-opacity="1" stop-color="rgb(255,230,191)" offset="0%"/>
        <stop stop-opacity="1" stop-color="rgb(255,173,51)" offset="100%"/>
      </linearGradient>
      <linearGradient x1="548.3333" gradientUnits="userSpaceOnUse" x2="548.3333" y1="144" y2="161" id="linearGradient13" spreadMethod="pad">
        <stop stop-opacity="1" stop-color="rgb(255,230,191)" offset="0%"/>
        <stop stop-opacity="1" stop-color="rgb(255,173,51)" offset="100%"/>
      </linearGradient>
      <clipPath clipPathUnits="userSpaceOnUse" id="clipPath1">
        <path d="M0 0 L652 0 L652 388 L0 388 L0 0 Z"/>
      </clipPath>
      <clipPath clipPathUnits="userSpaceOnUse" id="clipPath2">
        <path d="M3 73 L655 73 L655 461 L3 461 L3 73 Z"/>
      </clipPath>
      <clipPath clipPathUnits="userSpaceOnUse" id="clipPath3">
        <path d="M119.5049 -18.9541 L119.5049 633.0459 L-268.4951 633.0459 L-268.4951 -18.9541 L119.5049 -18.9541 Z"/>
      </clipPath>
      <clipPath clipPathUnits="userSpaceOnUse" id="clipPath4">
        <path d="M270.0713 -18.9541 L270.0713 633.0459 L-117.9287 633.0459 L-117.9287 -18.9541 L270.0713 -18.9541 Z"/>
      </clipPath>
      <clipPath clipPathUnits="userSpaceOnUse" id="clipPath5">
        <path d="M356.2744 -18.9541 L356.2744 633.0459 L-31.7256 633.0459 L-31.7256 -18.9541 L356.2744 -18.9541 Z"/>
      </clipPath>
      <clipPath clipPathUnits="userSpaceOnUse" id="clipPath6">
        <path d="M192.708 -18.9541 L192.708 633.0459 L-195.292 633.0459 L-195.292 -18.9541 L192.708 -18.9541 Z"/>
      </clipPath>
    </defs>
    <g fill="white" text-rendering="geometricPrecision" shape-rendering="geometricPrecision" transform="translate(-3,-73)" stroke="white">
      <rect x="3" width="652" height="388" y="73" clip-path="url(#clipPath2)" stroke="none"/>
    </g>
    <g fill="rgb(236,245,255)" text-rendering="geometricPrecision" shape-rendering="geometricPrecision" transform="matrix(1,0,0,1,-3,-73)" stroke="rgb(236,245,255)">
      <path d="M18.9541 88 L18.9541 118 L639.5667 118 L639.5667 88 Z" stroke="none" clip-path="url(#clipPath2)"/>
      <rect x="18.9541" width="620.6126" height="327.1328" y="118" clip-path="url(#clipPath2)" stroke="none"/>
      <line clip-path="url(#clipPath2)" fill="rgb(113,146,178)" x1="42.9541" x2="639.5667" y1="118" y2="118" stroke="none"/>
      <rect x="18.9541" y="118" clip-path="url(#clipPath2)" fill="rgb(196,215,237)" width="24" height="80" stroke="none"/>
      <rect x="42.9541" y="118" clip-path="url(#clipPath2)" fill="rgb(196,215,237)" width="596.6126" height="80" stroke="none"/>
      <rect x="18.9541" y="198" clip-path="url(#clipPath2)" fill="rgb(171,200,226)" width="24" height="80" stroke="none"/>
      <rect x="42.9541" y="198" clip-path="url(#clipPath2)" fill="rgb(171,200,226)" width="596.6126" height="80" stroke="none"/>
      <rect x="18.9541" y="278" clip-path="url(#clipPath2)" fill="rgb(196,215,237)" width="24" height="80" stroke="none"/>
      <rect x="42.9541" y="278" clip-path="url(#clipPath2)" fill="rgb(196,215,237)" width="596.6126" height="80" stroke="none"/>
      <rect x="18.9541" y="358" clip-path="url(#clipPath2)" fill="rgb(171,200,226)" width="24" height="87.1328" stroke="none"/>
      <rect x="42.9541" y="358" clip-path="url(#clipPath2)" fill="rgb(171,200,226)" width="596.6126" height="87.1328" stroke="none"/>
    </g>
    <g text-rendering="geometricPrecision" stroke-miterlimit="1.45" shape-rendering="geometricPrecision" transform="matrix(1,0,0,1,-3,-73)" stroke-linecap="butt">
      <rect fill="none" x="18.9541" width="620.6126" height="357.1328" y="88" clip-path="url(#clipPath2)"/>
      <rect fill="none" x="42.9541" width="596.6126" height="327.1328" y="118" clip-path="url(#clipPath2)"/>
      <rect fill="none" x="18.9541" width="620.6126" height="80" y="118" clip-path="url(#clipPath2)"/>
      <rect fill="none" x="18.9541" width="620.6126" height="80" y="198" clip-path="url(#clipPath2)"/>
      <rect fill="none" x="18.9541" width="620.6126" height="80" y="278" clip-path="url(#clipPath2)"/>
      <rect fill="none" x="18.9541" width="620.6126" height="87.1328" y="358" clip-path="url(#clipPath2)"/>
    </g>
    <g font-size="15px" stroke-linecap="butt" transform="matrix(1,0,0,1,-3,-73)" text-rendering="geometricPrecision" font-family="sans-serif" shape-rendering="geometricPrecision" stroke-miterlimit="1.45">
      <text x="266.62" xml:space="preserve" y="108.502" clip-path="url(#clipPath2)" stroke="none">Proxy integration</text>
    </g>
    <g text-rendering="geometricPrecision" stroke-miterlimit="1.45" shape-rendering="geometricPrecision" font-family="sans-serif" transform="matrix(-0,-1,1,-0,18.9541,119.5049)" stroke-linecap="butt">
      <text x="2" xml:space="preserve" y="13.6016" clip-path="url(#clipPath3)" stroke="none">Http Server</text>
    </g>
    <g text-rendering="geometricPrecision" stroke-miterlimit="1.45" shape-rendering="geometricPrecision" font-family="sans-serif" transform="matrix(-0,-1,1,-0,18.9541,270.0713)" stroke-linecap="butt">
      <text x="2" xml:space="preserve" y="13.6016" clip-path="url(#clipPath4)" stroke="none">Browser</text>
    </g>
    <g text-rendering="geometricPrecision" stroke-miterlimit="1.45" shape-rendering="geometricPrecision" font-family="sans-serif" transform="matrix(-0,-1,1,-0,18.9541,356.2744)" stroke-linecap="butt">
      <text x="2" xml:space="preserve" y="13.6016" clip-path="url(#clipPath5)" stroke="none">Keycloak</text>
    </g>
    <g text-rendering="geometricPrecision" stroke-miterlimit="1.45" shape-rendering="geometricPrecision" font-family="sans-serif" transform="matrix(-0,-1,1,-0,18.9541,192.708)" stroke-linecap="butt">
      <text x="2" xml:space="preserve" y="13.6016" clip-path="url(#clipPath6)" stroke="none">Keycloak</text>
      <text x="11.4365" xml:space="preserve" y="27.7344" clip-path="url(#clipPath6)" stroke="none">Proxy</text>
    </g>
    <g fill="rgb(255,153,0)" text-rendering="geometricPrecision" shape-rendering="geometricPrecision" transform="matrix(1,0,0,1,-3,-73)" stroke="rgb(255,153,0)">
      <path d="M65.3333 237 L142.3333 237 L142.3333 250 Q142.3333 253 139.3333 253 L68.3333 253 Q65.3333 253 65.3333 250 Z" stroke="none" clip-path="url(#clipPath2)"/>
      <path fill="url(#linearGradient1)" d="M65.3333 226 Q65.3333 223 68.3333 223 L139.3333 223 Q142.3333 223 142.3333 226 L142.3333 238 L65.3333 238 Z" clip-path="url(#clipPath2)" stroke="none"/>
      <path fill="none" d="M67.3333 226 Q67.3333 225 68.3333 225 L139.3333 225 Q140.3333 225 140.3333 226 L140.3333 250 Q140.3333 251 139.3333 251 L68.3333 251 Q67.3333 251 67.3333 250 Z" stroke-width="2" clip-path="url(#clipPath2)" stroke="rgb(255,240,217)"/>
      <path fill="none" d="M67.3333 226 Q67.3333 225 68.3333 225 L139.3333 225 Q140.3333 225 140.3333 226 L140.3333 250 Q140.3333 251 139.3333 251 L68.3333 251 Q67.3333 251 67.3333 250 Z" clip-path="url(#clipPath2)"/>
    </g>
    <g text-rendering="geometricPrecision" stroke-miterlimit="1.45" shape-rendering="geometricPrecision" font-family="sans-serif" transform="matrix(1,0,0,1,-3,-73)" stroke-linecap="butt">
      <text x="75.5091" xml:space="preserve" y="242.5352" clip-path="url(#clipPath2)" stroke="none">Get token</text>
    </g>
    <g fill="rgb(255,153,0)" text-rendering="geometricPrecision" shape-rendering="geometricPrecision" transform="matrix(1,0,0,1,-3,-73)" stroke="rgb(255,153,0)">
      <path d="M87.6667 401 L171.3333 401 L171.3333 414 Q171.3333 417 168.3333 417 L90.6667 417 Q87.6667 417 87.6667 414 Z" stroke="none" clip-path="url(#clipPath2)"/>
      <path fill="url(#linearGradient2)" d="M87.6667 390 Q87.6667 387 90.6667 387 L168.3333 387 Q171.3333 387 171.3333 390 L171.3333 402 L87.6667 402 Z" clip-path="url(#clipPath2)" stroke="none"/>
      <path fill="none" d="M89.6667 390 Q89.6667 389 90.6667 389 L168.3333 389 Q169.3333 389 169.3333 390 L169.3333 414 Q169.3333 415 168.3333 415 L90.6667 415 Q89.6667 415 89.6667 414 Z" stroke-width="2" clip-path="url(#clipPath2)" stroke="rgb(255,240,217)"/>
      <path fill="none" d="M89.6667 390 Q89.6667 389 90.6667 389 L168.3333 389 Q169.3333 389 169.3333 390 L169.3333 414 Q169.3333 415 168.3333 415 L90.6667 415 Q89.6667 415 89.6667 414 Z" clip-path="url(#clipPath2)"/>
    </g>
    <g text-rendering="geometricPrecision" stroke-miterlimit="1.45" shape-rendering="geometricPrecision" font-family="sans-serif" transform="matrix(1,0,0,1,-3,-73)" stroke-linecap="butt">
      <text x="106.1182" xml:space="preserve" y="399.4688" clip-path="url(#clipPath2)" stroke="none">Validate</text>
      <text x="109.7539" xml:space="preserve" y="413.6016" clip-path="url(#clipPath2)" stroke="none">Access</text>
    </g>
    <g fill="rgb(255,153,0)" text-rendering="geometricPrecision" shape-rendering="geometricPrecision" transform="matrix(1,0,0,1,-3,-73)" stroke="rgb(255,153,0)">
      <path d="M48.6667 319 L88.6667 319 L88.6667 332 Q88.6667 335 85.6667 335 L51.6667 335 Q48.6667 335 48.6667 332 Z" stroke="none" clip-path="url(#clipPath2)"/>
      <path fill="url(#linearGradient3)" d="M48.6667 308 Q48.6667 305 51.6667 305 L85.6667 305 Q88.6667 305 88.6667 308 L88.6667 320 L48.6667 320 Z" clip-path="url(#clipPath2)" stroke="none"/>
      <path fill="none" d="M50.6667 308 Q50.6667 307 51.6667 307 L85.6667 307 Q86.6667 307 86.6667 308 L86.6667 332 Q86.6667 333 85.6667 333 L51.6667 333 Q50.6667 333 50.6667 332 Z" stroke-width="2" clip-path="url(#clipPath2)" stroke="rgb(255,240,217)"/>
      <path fill="none" d="M50.6667 308 Q50.6667 307 51.6667 307 L85.6667 307 Q86.6667 307 86.6667 308 L86.6667 332 Q86.6667 333 85.6667 333 L51.6667 333 Q50.6667 333 50.6667 332 Z" clip-path="url(#clipPath2)"/>
    </g>
    <g text-rendering="geometricPrecision" stroke-miterlimit="1.45" shape-rendering="geometricPrecision" font-family="sans-serif" transform="matrix(1,0,0,1,-3,-73)" stroke-linecap="butt">
      <text x="55.1784" xml:space="preserve" y="324.5352" clip-path="url(#clipPath2)" stroke="none">Start</text>
    </g>
    <g fill="rgb(255,153,0)" text-rendering="geometricPrecision" shape-rendering="geometricPrecision" transform="matrix(1,0,0,1,-3,-73)" stroke="rgb(255,153,0)">
      <path d="M172.3333 237 L249.3333 237 L249.3333 250 Q249.3333 253 246.3333 253 L175.3333 253 Q172.3333 253 172.3333 250 Z" stroke="none" clip-path="url(#clipPath2)"/>
      <path fill="url(#linearGradient4)" d="M172.3333 226 Q172.3333 223 175.3333 223 L246.3333 223 Q249.3333 223 249.3333 226 L249.3333 238 L172.3333 238 Z" clip-path="url(#clipPath2)" stroke="none"/>
      <path fill="none" d="M174.3333 226 Q174.3333 225 175.3333 225 L246.3333 225 Q247.3333 225 247.3333 226 L247.3333 250 Q247.3333 251 246.3333 251 L175.3333 251 Q174.3333 251 174.3333 250 Z" stroke-width="2" clip-path="url(#clipPath2)" stroke="rgb(255,240,217)"/>
      <path fill="none" d="M174.3333 226 Q174.3333 225 175.3333 225 L246.3333 225 Q247.3333 225 247.3333 226 L247.3333 250 Q247.3333 251 246.3333 251 L175.3333 251 Q174.3333 251 174.3333 250 Z" clip-path="url(#clipPath2)"/>
    </g>
    <g text-rendering="geometricPrecision" stroke-miterlimit="1.45" shape-rendering="geometricPrecision" font-family="sans-serif" transform="matrix(1,0,0,1,-3,-73)" stroke-linecap="butt">
      <text x="194.7493" xml:space="preserve" y="235.4688" clip-path="url(#clipPath2)" stroke="none">Login</text>
      <text x="188.4095" xml:space="preserve" y="249.6016" clip-path="url(#clipPath2)" stroke="none">redirect</text>
    </g>
    <g fill="rgb(255,153,0)" text-rendering="geometricPrecision" shape-rendering="geometricPrecision" transform="matrix(1,0,0,1,-3,-73)" stroke="rgb(255,153,0)">
      <path d="M214.3333 319 L254.3333 319 L254.3333 332 Q254.3333 335 251.3333 335 L217.3333 335 Q214.3333 335 214.3333 332 Z" stroke="none" clip-path="url(#clipPath2)"/>
      <path fill="url(#linearGradient5)" d="M214.3333 308 Q214.3333 305 217.3333 305 L251.3333 305 Q254.3333 305 254.3333 308 L254.3333 320 L214.3333 320 Z" clip-path="url(#clipPath2)" stroke="none"/>
      <path fill="none" d="M216.3333 308 Q216.3333 307 217.3333 307 L251.3333 307 Q252.3333 307 252.3333 308 L252.3333 332 Q252.3333 333 251.3333 333 L217.3333 333 Q216.3333 333 216.3333 332 Z" stroke-width="2" clip-path="url(#clipPath2)" stroke="rgb(255,240,217)"/>
      <path fill="none" d="M216.3333 308 Q216.3333 307 217.3333 307 L251.3333 307 Q252.3333 307 252.3333 308 L252.3333 332 Q252.3333 333 251.3333 333 L217.3333 333 Q216.3333 333 216.3333 332 Z" clip-path="url(#clipPath2)"/>
    </g>
    <g text-rendering="geometricPrecision" stroke-miterlimit="1.45" shape-rendering="geometricPrecision" font-family="sans-serif" transform="matrix(1,0,0,1,-3,-73)" stroke-linecap="butt">
      <text x="215.6536" xml:space="preserve" y="324.5352" clip-path="url(#clipPath2)" stroke="none">Follow</text>
    </g>
    <g fill="rgb(255,153,0)" text-rendering="geometricPrecision" shape-rendering="geometricPrecision" transform="matrix(1,0,0,1,-3,-73)" stroke="rgb(255,153,0)">
      <path d="M223.3333 401 L307 401 L307 414 Q307 417 304 417 L226.3333 417 Q223.3333 417 223.3333 414 Z" stroke="none" clip-path="url(#clipPath2)"/>
      <path fill="url(#linearGradient6)" d="M223.3333 390 Q223.3333 387 226.3333 387 L304 387 Q307 387 307 390 L307 402 L223.3333 402 Z" clip-path="url(#clipPath2)" stroke="none"/>
      <path fill="none" d="M225.3333 390 Q225.3333 389 226.3333 389 L304 389 Q305 389 305 390 L305 414 Q305 415 304 415 L226.3333 415 Q225.3333 415 225.3333 414 Z" stroke-width="2" clip-path="url(#clipPath2)" stroke="rgb(255,240,217)"/>
      <path fill="none" d="M225.3333 390 Q225.3333 389 226.3333 389 L304 389 Q305 389 305 390 L305 414 Q305 415 304 415 L226.3333 415 Q225.3333 415 225.3333 414 Z" clip-path="url(#clipPath2)"/>
    </g>
    <g text-rendering="geometricPrecision" stroke-miterlimit="1.45" shape-rendering="geometricPrecision" font-family="sans-serif" transform="matrix(1,0,0,1,-3,-73)" stroke-linecap="butt">
      <text x="239.0661" xml:space="preserve" y="399.4688" clip-path="url(#clipPath2)" stroke="none">Generate</text>
      <text x="233.4704" xml:space="preserve" y="413.6016" clip-path="url(#clipPath2)" stroke="none">Login Page</text>
    </g>
    <g fill="rgb(255,153,0)" text-rendering="geometricPrecision" shape-rendering="geometricPrecision" transform="matrix(1,0,0,1,-3,-73)" stroke="rgb(255,153,0)">
      <path d="M290.6667 319 L330.6667 319 L330.6667 332 Q330.6667 335 327.6667 335 L293.6667 335 Q290.6667 335 290.6667 332 Z" stroke="none" clip-path="url(#clipPath2)"/>
      <path fill="url(#linearGradient7)" d="M290.6667 308 Q290.6667 305 293.6667 305 L327.6667 305 Q330.6667 305 330.6667 308 L330.6667 320 L290.6667 320 Z" clip-path="url(#clipPath2)" stroke="none"/>
      <path fill="none" d="M292.6667 308 Q292.6667 307 293.6667 307 L327.6667 307 Q328.6667 307 328.6667 308 L328.6667 332 Q328.6667 333 327.6667 333 L293.6667 333 Q292.6667 333 292.6667 332 Z" stroke-width="2" clip-path="url(#clipPath2)" stroke="rgb(255,240,217)"/>
      <path fill="none" d="M292.6667 308 Q292.6667 307 293.6667 307 L327.6667 307 Q328.6667 307 328.6667 308 L328.6667 332 Q328.6667 333 327.6667 333 L293.6667 333 Q292.6667 333 292.6667 332 Z" clip-path="url(#clipPath2)"/>
    </g>
    <g text-rendering="geometricPrecision" stroke-miterlimit="1.45" shape-rendering="geometricPrecision" font-family="sans-serif" transform="matrix(1,0,0,1,-3,-73)" stroke-linecap="butt">
      <text x="294.5827" xml:space="preserve" y="324.5352" clip-path="url(#clipPath2)" stroke="none">Login</text>
    </g>
    <g fill="rgb(255,153,0)" text-rendering="geometricPrecision" shape-rendering="geometricPrecision" transform="matrix(1,0,0,1,-3,-73)" stroke="rgb(255,153,0)">
      <path d="M331.3333 401 L415 401 L415 414 Q415 417 412 417 L334.3333 417 Q331.3333 417 331.3333 414 Z" stroke="none" clip-path="url(#clipPath2)"/>
      <path fill="url(#linearGradient8)" d="M331.3333 390 Q331.3333 387 334.3333 387 L412 387 Q415 387 415 390 L415 402 L331.3333 402 Z" clip-path="url(#clipPath2)" stroke="none"/>
      <path fill="none" d="M333.3333 390 Q333.3333 389 334.3333 389 L412 389 Q413 389 413 390 L413 414 Q413 415 412 415 L334.3333 415 Q333.3333 415 333.3333 414 Z" stroke-width="2" clip-path="url(#clipPath2)" stroke="rgb(255,240,217)"/>
      <path fill="none" d="M333.3333 390 Q333.3333 389 334.3333 389 L412 389 Q413 389 413 390 L413 414 Q413 415 412 415 L334.3333 415 Q333.3333 415 333.3333 414 Z" clip-path="url(#clipPath2)"/>
    </g>
    <g text-rendering="geometricPrecision" stroke-miterlimit="1.45" shape-rendering="geometricPrecision" font-family="sans-serif" transform="matrix(1,0,0,1,-3,-73)" stroke-linecap="butt">
      <text x="349.404" xml:space="preserve" y="406.5352" clip-path="url(#clipPath2)" stroke="none">Redirect</text>
    </g>
    <g fill="rgb(255,153,0)" text-rendering="geometricPrecision" shape-rendering="geometricPrecision" transform="matrix(1,0,0,1,-3,-73)" stroke="rgb(255,153,0)">
      <path d="M370 319 L410 319 L410 332 Q410 335 407 335 L373 335 Q370 335 370 332 Z" stroke="none" clip-path="url(#clipPath2)"/>
      <path fill="url(#linearGradient9)" d="M370 308 Q370 305 373 305 L407 305 Q410 305 410 308 L410 320 L370 320 Z" clip-path="url(#clipPath2)" stroke="none"/>
      <path fill="none" d="M372 308 Q372 307 373 307 L407 307 Q408 307 408 308 L408 332 Q408 333 407 333 L373 333 Q372 333 372 332 Z" stroke-width="2" clip-path="url(#clipPath2)" stroke="rgb(255,240,217)"/>
      <path fill="none" d="M372 308 Q372 307 373 307 L407 307 Q408 307 408 308 L408 332 Q408 333 407 333 L373 333 Q372 333 372 332 Z" clip-path="url(#clipPath2)"/>
    </g>
    <g text-rendering="geometricPrecision" stroke-miterlimit="1.45" shape-rendering="geometricPrecision" font-family="sans-serif" transform="matrix(1,0,0,1,-3,-73)" stroke-linecap="butt">
      <text x="371.3203" xml:space="preserve" y="324.5352" clip-path="url(#clipPath2)" stroke="none">Follow</text>
    </g>
    <g fill="rgb(255,153,0)" text-rendering="geometricPrecision" shape-rendering="geometricPrecision" transform="matrix(1,0,0,1,-3,-73)" stroke="rgb(255,153,0)">
      <path d="M387.6667 237 L464.6667 237 L464.6667 250 Q464.6667 253 461.6667 253 L390.6667 253 Q387.6667 253 387.6667 250 Z" stroke="none" clip-path="url(#clipPath2)"/>
      <path fill="url(#linearGradient10)" d="M387.6667 226 Q387.6667 223 390.6667 223 L461.6667 223 Q464.6667 223 464.6667 226 L464.6667 238 L387.6667 238 Z" clip-path="url(#clipPath2)" stroke="none"/>
      <path fill="none" d="M389.6667 226 Q389.6667 225 390.6667 225 L461.6667 225 Q462.6667 225 462.6667 226 L462.6667 250 Q462.6667 251 461.6667 251 L390.6667 251 Q389.6667 251 389.6667 250 Z" stroke-width="2" clip-path="url(#clipPath2)" stroke="rgb(255,240,217)"/>
      <path fill="none" d="M389.6667 226 Q389.6667 225 390.6667 225 L461.6667 225 Q462.6667 225 462.6667 226 L462.6667 250 Q462.6667 251 461.6667 251 L390.6667 251 Q389.6667 251 389.6667 250 Z" clip-path="url(#clipPath2)"/>
    </g>
    <g text-rendering="geometricPrecision" stroke-miterlimit="1.45" shape-rendering="geometricPrecision" font-family="sans-serif" transform="matrix(1,0,0,1,-3,-73)" stroke-linecap="butt">
      <text x="397.8424" xml:space="preserve" y="242.5352" clip-path="url(#clipPath2)" stroke="none">Get token</text>
    </g>
    <g fill="rgb(255,153,0)" text-rendering="geometricPrecision" shape-rendering="geometricPrecision" transform="matrix(1,0,0,1,-3,-73)" stroke="rgb(255,153,0)">
      <path d="M445 401 L528.6667 401 L528.6667 414 Q528.6667 417 525.6667 417 L448 417 Q445 417 445 414 Z" stroke="none" clip-path="url(#clipPath2)"/>
      <path fill="url(#linearGradient11)" d="M445 390 Q445 387 448 387 L525.6667 387 Q528.6667 387 528.6667 390 L528.6667 402 L445 402 Z" clip-path="url(#clipPath2)" stroke="none"/>
      <path fill="none" d="M447 390 Q447 389 448 389 L525.6667 389 Q526.6667 389 526.6667 390 L526.6667 414 Q526.6667 415 525.6667 415 L448 415 Q447 415 447 414 Z" stroke-width="2" clip-path="url(#clipPath2)" stroke="rgb(255,240,217)"/>
      <path fill="none" d="M447 390 Q447 389 448 389 L525.6667 389 Q526.6667 389 526.6667 390 L526.6667 414 Q526.6667 415 525.6667 415 L448 415 Q447 415 447 414 Z" clip-path="url(#clipPath2)"/>
    </g>
    <g text-rendering="geometricPrecision" stroke-miterlimit="1.45" shape-rendering="geometricPrecision" font-family="sans-serif" transform="matrix(1,0,0,1,-3,-73)" stroke-linecap="butt">
      <text x="463.4515" xml:space="preserve" y="399.4688" clip-path="url(#clipPath2)" stroke="none">Validate</text>
      <text x="467.0872" xml:space="preserve" y="413.6016" clip-path="url(#clipPath2)" stroke="none">Access</text>
    </g>
    <g fill="rgb(255,153,0)" text-rendering="geometricPrecision" shape-rendering="geometricPrecision" transform="matrix(1,0,0,1,-3,-73)" stroke="rgb(255,153,0)">
      <path d="M501.6667 237 L578.6666 237 L578.6666 250 Q578.6666 253 575.6666 253 L504.6667 253 Q501.6667 253 501.6667 250 Z" stroke="none" clip-path="url(#clipPath2)"/>
      <path fill="url(#linearGradient12)" d="M501.6667 226 Q501.6667 223 504.6667 223 L575.6666 223 Q578.6666 223 578.6666 226 L578.6666 238 L501.6667 238 Z" clip-path="url(#clipPath2)" stroke="none"/>
      <path fill="none" d="M503.6667 226 Q503.6667 225 504.6667 225 L575.6666 225 Q576.6666 225 576.6666 226 L576.6666 250 Q576.6666 251 575.6666 251 L504.6667 251 Q503.6667 251 503.6667 250 Z" stroke-width="2" clip-path="url(#clipPath2)" stroke="rgb(255,240,217)"/>
      <path fill="none" d="M503.6667 226 Q503.6667 225 504.6667 225 L575.6666 225 Q576.6666 225 576.6666 226 L576.6666 250 Q576.6666 251 575.6666 251 L504.6667 251 Q503.6667 251 503.6667 250 Z" clip-path="url(#clipPath2)"/>
    </g>
    <g text-rendering="geometricPrecision" stroke-miterlimit="1.45" shape-rendering="geometricPrecision" font-family="sans-serif" transform="matrix(1,0,0,1,-3,-73)" stroke-linecap="butt">
      <text x="527.4196" xml:space="preserve" y="242.5352" clip-path="url(#clipPath2)" stroke="none">Pass</text>
    </g>
    <g fill="rgb(255,153,0)" text-rendering="geometricPrecision" shape-rendering="geometricPrecision" transform="matrix(1,0,0,1,-3,-73)" stroke="rgb(255,153,0)">
      <path d="M548.3333 159 L625.3333 159 L625.3333 172 Q625.3333 175 622.3333 175 L551.3333 175 Q548.3333 175 548.3333 172 Z" stroke="none" clip-path="url(#clipPath2)"/>
      <path fill="url(#linearGradient13)" d="M548.3333 148 Q548.3333 145 551.3333 145 L622.3333 145 Q625.3333 145 625.3333 148 L625.3333 160 L548.3333 160 Z" clip-path="url(#clipPath2)" stroke="none"/>
      <path fill="none" d="M550.3333 148 Q550.3333 147 551.3333 147 L622.3333 147 Q623.3333 147 623.3333 148 L623.3333 172 Q623.3333 173 622.3333 173 L551.3333 173 Q550.3333 173 550.3333 172 Z" stroke-width="2" clip-path="url(#clipPath2)" stroke="rgb(255,240,217)"/>
      <path fill="none" d="M550.3333 148 Q550.3333 147 551.3333 147 L622.3333 147 Q623.3333 147 623.3333 148 L623.3333 172 Q623.3333 173 622.3333 173 L551.3333 173 Q550.3333 173 550.3333 172 Z" clip-path="url(#clipPath2)"/>
    </g>
    <g text-rendering="geometricPrecision" stroke-miterlimit="1.45" shape-rendering="geometricPrecision" font-family="sans-serif" transform="matrix(1,0,0,1,-3,-73)" stroke-linecap="butt">
      <text x="568.6605" xml:space="preserve" y="164.5352" clip-path="url(#clipPath2)" stroke="none">Profit?</text>
    </g>
    <g text-rendering="geometricPrecision" stroke-miterlimit="1.45" stroke-dasharray="6,2" shape-rendering="geometricPrecision" transform="matrix(1,0,0,1,-3,-73)" stroke-linecap="butt">
      <path fill="none" d="M106.1832 253.0146 L125.912 379.074" clip-path="url(#clipPath2)"/>
    </g>
    <g text-rendering="geometricPrecision" stroke-miterlimit="1.45" stroke-dasharray="6,2" shape-rendering="geometricPrecision" transform="matrix(1,0,0,1,-3,-73)" stroke-linecap="butt">
      <path d="M127.149 386.9778 L130.2334 374.349 L125.7574 378.086 L120.3536 375.8952 Z" stroke="none" clip-path="url(#clipPath2)"/>
      <path fill="none" stroke-dasharray="none" d="M75.1059 304.9854 L94.2417 260.3652" clip-path="url(#clipPath2)"/>
      <path stroke-dasharray="none" d="M97.3949 253.0128 L88.0699 262.0707 L93.8476 261.2842 L97.2604 266.0121 Z" clip-path="url(#clipPath2)" stroke="none"/>
      <path fill="none" d="M136.9463 386.9854 L199.8289 260.1892" clip-path="url(#clipPath2)"/>
      <path d="M203.3833 253.0222 L193.5723 261.5513 L199.3846 261.0851 L202.5311 265.9942 Z" clip-path="url(#clipPath2)" stroke="none"/>
      <path fill="none" stroke-dasharray="none" d="M215.1363 253.0146 L227.8269 297.2968" clip-path="url(#clipPath2)"/>
      <path stroke-dasharray="none" d="M230.0309 304.9872 L231.5315 292.0741 L227.5514 296.3354 L221.9184 294.829 Z" clip-path="url(#clipPath2)" stroke="none"/>
      <path fill="none" stroke-dasharray="none" d="M239.9791 335.0146 L256.7059 379.4991" clip-path="url(#clipPath2)"/>
      <path stroke-dasharray="none" d="M259.5216 386.9872 L259.9782 373.9952 L256.354 378.563 L250.618 377.5148 Z" clip-path="url(#clipPath2)" stroke="none"/>
      <path fill="none" stroke-dasharray="none" d="M273.498 386.9854 L298.4549 342.0081" clip-path="url(#clipPath2)"/>
      <path stroke-dasharray="none" d="M302.3364 335.0128 L292.1421 343.0798 L297.9697 342.8825 L300.8862 347.9317 Z" clip-path="url(#clipPath2)" stroke="none"/>
      <path fill="none" stroke-dasharray="none" d="M322.0955 334.9946 L356.871 380.6201" clip-path="url(#clipPath2)"/>
      <path stroke-dasharray="none" d="M361.7206 386.9827 L358.4229 374.4079 L356.2649 379.8248 L350.4697 380.4698 Z" clip-path="url(#clipPath2)" stroke="none"/>
      <path fill="none" stroke-dasharray="none" d="M376.2489 386.9854 L385.3094 342.8494" clip-path="url(#clipPath2)"/>
      <path stroke-dasharray="none" d="M386.9181 335.0128 L379.6071 345.7622 L385.1083 343.829 L389.4029 347.7731 Z" clip-path="url(#clipPath2)" stroke="none"/>
      <path fill="none" stroke-dasharray="none" d="M396.6223 304.9854 L416.3168 260.3325" clip-path="url(#clipPath2)"/>
      <path stroke-dasharray="none" d="M419.5452 253.0128 L410.1278 261.9746 L415.9132 261.2475 L419.2774 266.0101 Z" clip-path="url(#clipPath2)" stroke="none"/>
      <path fill="none" d="M431.7209 253.0146 L478.5008 379.4747" clip-path="url(#clipPath2)"/>
      <path d="M481.2763 386.9778 L481.8025 373.9884 L478.1538 378.5368 L472.4236 377.4579 Z" clip-path="url(#clipPath2)" stroke="none"/>
      <path fill="none" d="M491.7162 386.9854 L532.8073 260.63" clip-path="url(#clipPath2)"/>
      <path d="M535.2814 253.0222 L526.8154 262.8877 L532.498 261.581 L536.3252 265.9802 Z" clip-path="url(#clipPath2)" stroke="none"/>
      <path fill="none" stroke-dasharray="none" d="M549.1218 223.0322 L573.7584 181.8537" clip-path="url(#clipPath2)"/>
      <path stroke-dasharray="none" d="M577.8658 174.9886 L567.4141 182.7192 L573.245 182.7119 L575.9954 187.8534 Z" clip-path="url(#clipPath2)" stroke="none"/>
      <text x="459.6805" y="192.9377" clip-path="url(#clipPath2)" font-family="sans-serif" stroke-dasharray="none" stroke="none" xml:space="preserve">HTTP GET/POST</text>
    </g>
  </g>
</svg>
