<?xml version="1.0" encoding="UTF-8"?><svg xmlns="http://www.w3.org/2000/svg" xmlns:xlink="http://www.w3.org/1999/xlink" fill-opacity="1" color-rendering="auto" color-interpolation="auto" text-rendering="auto" stroke="black" stroke-linecap="square" width="527" stroke-miterlimit="10" shape-rendering="auto" stroke-opacity="1" fill="black" stroke-dasharray="none" font-weight="normal" stroke-width="1" height="302" font-family="'Dialog'" font-style="normal" stroke-linejoin="miter" font-size="12px" stroke-dashoffset="0" image-rendering="auto">
  <!--Generated by ySVG 2.5-->
  <defs id="genericDefs"/>
  <g>
    <defs id="defs1">
      <linearGradient x1="81.6827" gradientUnits="userSpaceOnUse" x2="81.6827" y1="190" y2="207" id="linearGradient1" spreadMethod="pad">
        <stop stop-opacity="1" stop-color="rgb(255,230,191)" offset="0%"/>
        <stop stop-opacity="1" stop-color="rgb(255,173,51)" offset="100%"/>
      </linearGradient>
      <linearGradient x1="112" gradientUnits="userSpaceOnUse" x2="112" y1="272" y2="289" id="linearGradient2" spreadMethod="pad">
        <stop stop-opacity="1" stop-color="rgb(255,230,191)" offset="0%"/>
        <stop stop-opacity="1" stop-color="rgb(255,173,51)" offset="100%"/>
      </linearGradient>
      <linearGradient x1="184" gradientUnits="userSpaceOnUse" x2="184" y1="190" y2="207" id="linearGradient3" spreadMethod="pad">
        <stop stop-opacity="1" stop-color="rgb(255,230,191)" offset="0%"/>
        <stop stop-opacity="1" stop-color="rgb(255,173,51)" offset="100%"/>
      </linearGradient>
      <linearGradient x1="242" gradientUnits="userSpaceOnUse" x2="242" y1="272" y2="289" id="linearGradient4" spreadMethod="pad">
        <stop stop-opacity="1" stop-color="rgb(255,230,191)" offset="0%"/>
        <stop stop-opacity="1" stop-color="rgb(255,173,51)" offset="100%"/>
      </linearGradient>
      <linearGradient x1="287" gradientUnits="userSpaceOnUse" x2="287" y1="354" y2="371" id="linearGradient5" spreadMethod="pad">
        <stop stop-opacity="1" stop-color="rgb(255,230,191)" offset="0%"/>
        <stop stop-opacity="1" stop-color="rgb(255,173,51)" offset="100%"/>
      </linearGradient>
      <linearGradient x1="357" gradientUnits="userSpaceOnUse" x2="357" y1="272" y2="289" id="linearGradient6" spreadMethod="pad">
        <stop stop-opacity="1" stop-color="rgb(255,230,191)" offset="0%"/>
        <stop stop-opacity="1" stop-color="rgb(255,173,51)" offset="100%"/>
      </linearGradient>
      <linearGradient x1="425" gradientUnits="userSpaceOnUse" x2="425" y1="190" y2="207" id="linearGradient7" spreadMethod="pad">
        <stop stop-opacity="1" stop-color="rgb(255,230,191)" offset="0%"/>
        <stop stop-opacity="1" stop-color="rgb(255,173,51)" offset="100%"/>
      </linearGradient>
      <clipPath clipPathUnits="userSpaceOnUse" id="clipPath1">
        <path d="M0 0 L527 0 L527 302 L0 302 L0 0 Z"/>
      </clipPath>
      <clipPath clipPathUnits="userSpaceOnUse" id="clipPath2">
        <path d="M22 121 L549 121 L549 423 L22 423 L22 121 Z"/>
      </clipPath>
      <clipPath clipPathUnits="userSpaceOnUse" id="clipPath3">
        <path d="M110.0713 -18.1945 L110.0713 508.8055 L-191.9287 508.8055 L-191.9287 -18.1945 L110.0713 -18.1945 Z"/>
      </clipPath>
      <clipPath clipPathUnits="userSpaceOnUse" id="clipPath4">
        <path d="M192.708 -18.1945 L192.708 508.8055 L-109.292 508.8055 L-109.292 -18.1945 L192.708 -18.1945 Z"/>
      </clipPath>
      <clipPath clipPathUnits="userSpaceOnUse" id="clipPath5">
        <path d="M262.7158 -18.1945 L262.7158 508.8055 L-39.2842 508.8055 L-39.2842 -18.1945 L262.7158 -18.1945 Z"/>
      </clipPath>
    </defs>
    <g fill="white" text-rendering="geometricPrecision" shape-rendering="geometricPrecision" transform="translate(-22,-121)" stroke="white">
      <rect x="22" width="527" height="302" y="121" clip-path="url(#clipPath2)" stroke="none"/>
    </g>
    <g fill="rgb(236,245,255)" text-rendering="geometricPrecision" shape-rendering="geometricPrecision" transform="matrix(1,0,0,1,-22,-121)" stroke="rgb(236,245,255)">
      <path d="M37.1945 136 L37.1945 166 L533.171 166 L533.171 136 Z" stroke="none" clip-path="url(#clipPath2)"/>
      <rect x="37.1945" width="495.9766" height="241.1328" y="166" clip-path="url(#clipPath2)" stroke="none"/>
      <line clip-path="url(#clipPath2)" fill="rgb(113,146,178)" x1="61.1945" x2="533.171" y1="166" y2="166" stroke="none"/>
      <rect x="37.1945" y="166" clip-path="url(#clipPath2)" fill="rgb(196,215,237)" width="24" height="80" stroke="none"/>
      <rect x="61.1945" y="166" clip-path="url(#clipPath2)" fill="rgb(196,215,237)" width="471.9766" height="80" stroke="none"/>
      <rect x="37.1945" y="246" clip-path="url(#clipPath2)" fill="rgb(171,200,226)" width="24" height="80" stroke="none"/>
      <rect x="61.1945" y="246" clip-path="url(#clipPath2)" fill="rgb(171,200,226)" width="471.9766" height="80" stroke="none"/>
      <rect x="37.1945" y="326" clip-path="url(#clipPath2)" fill="rgb(196,215,237)" width="24" height="81.1328" stroke="none"/>
      <rect x="61.1945" y="326" clip-path="url(#clipPath2)" fill="rgb(196,215,237)" width="471.9766" height="81.1328" stroke="none"/>
    </g>
    <g text-rendering="geometricPrecision" stroke-miterlimit="1.45" shape-rendering="geometricPrecision" transform="matrix(1,0,0,1,-22,-121)" stroke-linecap="butt">
      <rect fill="none" x="37.1945" width="495.9766" height="271.1328" y="136" clip-path="url(#clipPath2)"/>
      <rect fill="none" x="61.1945" width="471.9766" height="241.1328" y="166" clip-path="url(#clipPath2)"/>
      <rect fill="none" x="37.1945" width="495.9766" height="80" y="166" clip-path="url(#clipPath2)"/>
      <rect fill="none" x="37.1945" width="495.9766" height="80" y="246" clip-path="url(#clipPath2)"/>
      <rect fill="none" x="37.1945" width="495.9766" height="81.1328" y="326" clip-path="url(#clipPath2)"/>
    </g>
    <g font-size="15px" stroke-linecap="butt" transform="matrix(1,0,0,1,-22,-121)" text-rendering="geometricPrecision" font-family="sans-serif" shape-rendering="geometricPrecision" stroke-miterlimit="1.45">
      <text x="223.9523" xml:space="preserve" y="156.502" clip-path="url(#clipPath2)" stroke="none">LDAP Integration</text>
    </g>
    <g text-rendering="geometricPrecision" stroke-miterlimit="1.45" shape-rendering="geometricPrecision" font-family="sans-serif" transform="matrix(-0,-1,1,-0,18.1945,110.0713)" stroke-linecap="butt">
      <text x="2" xml:space="preserve" y="13.6016" clip-path="url(#clipPath3)" stroke="none">Browser</text>
    </g>
    <g text-rendering="geometricPrecision" stroke-miterlimit="1.45" shape-rendering="geometricPrecision" font-family="sans-serif" transform="matrix(-0,-1,1,-0,18.1945,192.708)" stroke-linecap="butt">
      <text x="2" xml:space="preserve" y="13.6016" clip-path="url(#clipPath4)" stroke="none">Keycloak</text>
    </g>
    <g text-rendering="geometricPrecision" stroke-miterlimit="1.45" shape-rendering="geometricPrecision" font-family="sans-serif" transform="matrix(-0,-1,1,-0,18.1945,262.7158)" stroke-linecap="butt">
      <text x="2" xml:space="preserve" y="13.6016" clip-path="url(#clipPath5)" stroke="none">LDAP</text>
    </g>
    <g fill="rgb(255,153,0)" text-rendering="geometricPrecision" shape-rendering="geometricPrecision" transform="matrix(1,0,0,1,-22,-121)" stroke="rgb(255,153,0)">
      <path d="M81.6827 205 L132.6827 205 L132.6827 218 Q132.6827 221 129.6827 221 L84.6827 221 Q81.6827 221 81.6827 218 Z" stroke="none" clip-path="url(#clipPath2)"/>
      <path fill="url(#linearGradient1)" d="M81.6827 194 Q81.6827 191 84.6827 191 L129.6827 191 Q132.6827 191 132.6827 194 L132.6827 206 L81.6827 206 Z" clip-path="url(#clipPath2)" stroke="none"/>
      <path fill="none" d="M83.6827 194 Q83.6827 193 84.6827 193 L129.6827 193 Q130.6827 193 130.6827 194 L130.6827 218 Q130.6827 219 129.6827 219 L84.6827 219 Q83.6827 219 83.6827 218 Z" stroke-width="2" clip-path="url(#clipPath2)" stroke="rgb(255,240,217)"/>
      <path fill="none" d="M83.6827 194 Q83.6827 193 84.6827 193 L129.6827 193 Q130.6827 193 130.6827 194 L130.6827 218 Q130.6827 219 129.6827 219 L84.6827 219 Q83.6827 219 83.6827 218 Z" clip-path="url(#clipPath2)"/>
    </g>
    <g text-rendering="geometricPrecision" stroke-miterlimit="1.45" shape-rendering="geometricPrecision" font-family="sans-serif" transform="matrix(1,0,0,1,-22,-121)" stroke-linecap="butt">
      <text x="93.6945" xml:space="preserve" y="210.5352" clip-path="url(#clipPath2)" stroke="none">Start</text>
    </g>
    <g fill="rgb(255,153,0)" text-rendering="geometricPrecision" shape-rendering="geometricPrecision" transform="matrix(1,0,0,1,-22,-121)" stroke="rgb(255,153,0)">
      <path d="M112 287 L189 287 L189 300 Q189 303 186 303 L115 303 Q112 303 112 300 Z" stroke="none" clip-path="url(#clipPath2)"/>
      <path fill="url(#linearGradient2)" d="M112 276 Q112 273 115 273 L186 273 Q189 273 189 276 L189 288 L112 288 Z" clip-path="url(#clipPath2)" stroke="none"/>
      <path fill="none" d="M114 276 Q114 275 115 275 L186 275 Q187 275 187 276 L187 300 Q187 301 186 301 L115 301 Q114 301 114 300 Z" stroke-width="2" clip-path="url(#clipPath2)" stroke="rgb(255,240,217)"/>
      <path fill="none" d="M114 276 Q114 275 115 275 L186 275 Q187 275 187 276 L187 300 Q187 301 186 301 L115 301 Q114 301 114 300 Z" clip-path="url(#clipPath2)"/>
    </g>
    <g text-rendering="geometricPrecision" stroke-miterlimit="1.45" shape-rendering="geometricPrecision" font-family="sans-serif" transform="matrix(1,0,0,1,-22,-121)" stroke-linecap="butt">
      <text x="124.3994" xml:space="preserve" y="285.4688" clip-path="url(#clipPath2)" stroke="none">Generate</text>
      <text x="119.8086" xml:space="preserve" y="299.6016" clip-path="url(#clipPath2)" stroke="none">login page</text>
    </g>
    <g fill="rgb(255,153,0)" text-rendering="geometricPrecision" shape-rendering="geometricPrecision" transform="matrix(1,0,0,1,-22,-121)" stroke="rgb(255,153,0)">
      <path d="M184 205 L261 205 L261 218 Q261 221 258 221 L187 221 Q184 221 184 218 Z" stroke="none" clip-path="url(#clipPath2)"/>
      <path fill="url(#linearGradient3)" d="M184 194 Q184 191 187 191 L258 191 Q261 191 261 194 L261 206 L184 206 Z" clip-path="url(#clipPath2)" stroke="none"/>
      <path fill="none" d="M186 194 Q186 193 187 193 L258 193 Q259 193 259 194 L259 218 Q259 219 258 219 L187 219 Q186 219 186 218 Z" stroke-width="2" clip-path="url(#clipPath2)" stroke="rgb(255,240,217)"/>
      <path fill="none" d="M186 194 Q186 193 187 193 L258 193 Q259 193 259 194 L259 218 Q259 219 258 219 L187 219 Q186 219 186 218 Z" clip-path="url(#clipPath2)"/>
    </g>
    <g text-rendering="geometricPrecision" stroke-miterlimit="1.45" shape-rendering="geometricPrecision" font-family="sans-serif" transform="matrix(1,0,0,1,-22,-121)" stroke-linecap="butt">
      <text x="197.5625" xml:space="preserve" y="210.5352" clip-path="url(#clipPath2)" stroke="none">Fill login</text>
    </g>
    <g fill="rgb(255,153,0)" text-rendering="geometricPrecision" shape-rendering="geometricPrecision" transform="matrix(1,0,0,1,-22,-121)" stroke="rgb(255,153,0)">
      <path d="M242 287 L319 287 L319 300 Q319 303 316 303 L245 303 Q242 303 242 300 Z" stroke="none" clip-path="url(#clipPath2)"/>
      <path fill="url(#linearGradient4)" d="M242 276 Q242 273 245 273 L316 273 Q319 273 319 276 L319 288 L242 288 Z" clip-path="url(#clipPath2)" stroke="none"/>
      <path fill="none" d="M244 276 Q244 275 245 275 L316 275 Q317 275 317 276 L317 300 Q317 301 316 301 L245 301 Q244 301 244 300 Z" stroke-width="2" clip-path="url(#clipPath2)" stroke="rgb(255,240,217)"/>
      <path fill="none" d="M244 276 Q244 275 245 275 L316 275 Q317 275 317 276 L317 300 Q317 301 316 301 L245 301 Q244 301 244 300 Z" clip-path="url(#clipPath2)"/>
    </g>
    <g text-rendering="geometricPrecision" stroke-miterlimit="1.45" shape-rendering="geometricPrecision" font-family="sans-serif" transform="matrix(1,0,0,1,-22,-121)" stroke-linecap="butt">
      <text x="257.1182" xml:space="preserve" y="285.4688" clip-path="url(#clipPath2)" stroke="none">Validate</text>
      <text x="265.8809" xml:space="preserve" y="299.6016" clip-path="url(#clipPath2)" stroke="none">login</text>
    </g>
    <g fill="rgb(255,153,0)" text-rendering="geometricPrecision" shape-rendering="geometricPrecision" transform="matrix(1,0,0,1,-22,-121)" stroke="rgb(255,153,0)">
      <path d="M287 369 L364 369 L364 382 Q364 385 361 385 L290 385 Q287 385 287 382 Z" stroke="none" clip-path="url(#clipPath2)"/>
      <path fill="url(#linearGradient5)" d="M287 358 Q287 355 290 355 L361 355 Q364 355 364 358 L364 370 L287 370 Z" clip-path="url(#clipPath2)" stroke="none"/>
      <path fill="none" d="M289 358 Q289 357 290 357 L361 357 Q362 357 362 358 L362 382 Q362 383 361 383 L290 383 Q289 383 289 382 Z" stroke-width="2" clip-path="url(#clipPath2)" stroke="rgb(255,240,217)"/>
      <path fill="none" d="M289 358 Q289 357 290 357 L361 357 Q362 357 362 358 L362 382 Q362 383 361 383 L290 383 Q289 383 289 382 Z" clip-path="url(#clipPath2)"/>
    </g>
    <g text-rendering="geometricPrecision" stroke-miterlimit="1.45" shape-rendering="geometricPrecision" font-family="sans-serif" transform="matrix(1,0,0,1,-22,-121)" stroke-linecap="butt">
      <text x="302.1182" xml:space="preserve" y="367.4688" clip-path="url(#clipPath2)" stroke="none">Validate</text>
      <text x="310.8809" xml:space="preserve" y="381.6016" clip-path="url(#clipPath2)" stroke="none">login</text>
    </g>
    <g fill="rgb(255,153,0)" text-rendering="geometricPrecision" shape-rendering="geometricPrecision" transform="matrix(1,0,0,1,-22,-121)" stroke="rgb(255,153,0)">
      <path d="M357 287 L434 287 L434 300 Q434 303 431 303 L360 303 Q357 303 357 300 Z" stroke="none" clip-path="url(#clipPath2)"/>
      <path fill="url(#linearGradient6)" d="M357 276 Q357 273 360 273 L431 273 Q434 273 434 276 L434 288 L357 288 Z" clip-path="url(#clipPath2)" stroke="none"/>
      <path fill="none" d="M359 276 Q359 275 360 275 L431 275 Q432 275 432 276 L432 300 Q432 301 431 301 L360 301 Q359 301 359 300 Z" stroke-width="2" clip-path="url(#clipPath2)" stroke="rgb(255,240,217)"/>
      <path fill="none" d="M359 276 Q359 275 360 275 L431 275 Q432 275 432 276 L432 300 Q432 301 431 301 L360 301 Q359 301 359 300 Z" clip-path="url(#clipPath2)"/>
    </g>
    <g text-rendering="geometricPrecision" stroke-miterlimit="1.45" shape-rendering="geometricPrecision" font-family="sans-serif" transform="matrix(1,0,0,1,-22,-121)" stroke-linecap="butt">
      <text x="379.416" xml:space="preserve" y="285.4688" clip-path="url(#clipPath2)" stroke="none">Login</text>
      <text x="366.6572" xml:space="preserve" y="299.6016" clip-path="url(#clipPath2)" stroke="none">OK/Failed</text>
    </g>
    <g fill="rgb(255,153,0)" text-rendering="geometricPrecision" shape-rendering="geometricPrecision" transform="matrix(1,0,0,1,-22,-121)" stroke="rgb(255,153,0)">
      <path d="M425 205 L502 205 L502 218 Q502 221 499 221 L428 221 Q425 221 425 218 Z" stroke="none" clip-path="url(#clipPath2)"/>
      <path fill="url(#linearGradient7)" d="M425 194 Q425 191 428 191 L499 191 Q502 191 502 194 L502 206 L425 206 Z" clip-path="url(#clipPath2)" stroke="none"/>
      <path fill="none" d="M427 194 Q427 193 428 193 L499 193 Q500 193 500 194 L500 218 Q500 219 499 219 L428 219 Q427 219 427 218 Z" stroke-width="2" clip-path="url(#clipPath2)" stroke="rgb(255,240,217)"/>
      <path fill="none" d="M427 194 Q427 193 428 193 L499 193 Q500 193 500 194 L500 218 Q500 219 499 219 L428 219 Q427 219 427 218 Z" clip-path="url(#clipPath2)"/>
    </g>
    <g text-rendering="geometricPrecision" stroke-miterlimit="1.45" shape-rendering="geometricPrecision" font-family="sans-serif" transform="matrix(1,0,0,1,-22,-121)" stroke-linecap="butt">
      <text x="444.8203" xml:space="preserve" y="203.4688" clip-path="url(#clipPath2)" stroke="none">Follow</text>
      <text x="439.7373" xml:space="preserve" y="217.6016" clip-path="url(#clipPath2)" stroke="none">Redirect</text>
    </g>
    <g text-rendering="geometricPrecision" stroke-miterlimit="1.45" shape-rendering="geometricPrecision" transform="matrix(1,0,0,1,-22,-121)" stroke-linecap="butt">
      <path fill="none" d="M115.1144 221.0146 L138.8326 265.9135" clip-path="url(#clipPath2)"/>
    </g>
    <g text-rendering="geometricPrecision" stroke-miterlimit="1.45" shape-rendering="geometricPrecision" transform="matrix(1,0,0,1,-22,-121)" stroke-linecap="butt">
      <path d="M142.5693 272.9872 L141.3853 260.0412 L138.3655 265.0293 L132.5432 264.7121 Z" stroke="none" clip-path="url(#clipPath2)"/>
      <path fill="none" d="M163.666 273.0054 L204.0357 227.0288" clip-path="url(#clipPath2)"/>
      <path d="M209.3141 221.0173 L197.6393 226.7356 L203.3759 227.7803 L205.1537 233.3336 Z" clip-path="url(#clipPath2)" stroke="none"/>
      <path fill="none" d="M233.1201 221.0146 L265.2614 266.4558" clip-path="url(#clipPath2)"/>
      <path d="M269.8812 272.9872 L267.0337 260.3029 L264.684 265.6394 L258.8695 266.0775 Z" clip-path="url(#clipPath2)" stroke="none"/>
      <path fill="none" d="M288.7397 303.0146 L313.4125 347.9738" clip-path="url(#clipPath2)"/>
      <path d="M317.2613 354.9872 L315.8714 342.0617 L312.9314 347.0972 L307.1047 346.8727 Z" clip-path="url(#clipPath2)" stroke="none"/>
      <path fill="none" d="M338.3003 355.0054 L377.4862 309.1018" clip-path="url(#clipPath2)"/>
      <path d="M382.6803 303.0173 L371.0864 308.8978 L376.837 309.8624 L378.692 315.3904 Z" clip-path="url(#clipPath2)" stroke="none"/>
      <path fill="none" d="M407.9346 273.0054 L445.9399 227.1754" clip-path="url(#clipPath2)"/>
      <path d="M451.0466 221.0173 L439.5378 227.0628 L445.3016 227.9451 L447.2354 233.4461 Z" clip-path="url(#clipPath2)" stroke="none"/>
    </g>
  </g>
</svg>
