<?xml version="1.0" encoding="UTF-8"?><svg xmlns="http://www.w3.org/2000/svg" xmlns:xlink="http://www.w3.org/1999/xlink" fill-opacity="1" color-rendering="auto" color-interpolation="auto" text-rendering="auto" stroke="black" stroke-linecap="square" width="656" stroke-miterlimit="10" shape-rendering="auto" stroke-opacity="1" fill="black" stroke-dasharray="none" font-weight="normal" stroke-width="1" height="306" font-family="'Dialog'" font-style="normal" stroke-linejoin="miter" font-size="12px" stroke-dashoffset="0" image-rendering="auto">
  <!--Generated by ySVG 2.5-->
  <defs id="genericDefs"/>
  <g>
    <defs id="defs1">
      <linearGradient x1="66.3333" gradientUnits="userSpaceOnUse" x2="66.3333" y1="142" y2="159" id="linearGradient1" spreadMethod="pad">
        <stop stop-opacity="1" stop-color="rgb(255,230,191)" offset="0%"/>
        <stop stop-opacity="1" stop-color="rgb(255,173,51)" offset="100%"/>
      </linearGradient>
      <linearGradient x1="95.8333" gradientUnits="userSpaceOnUse" x2="95.8333" y1="224" y2="241" id="linearGradient2" spreadMethod="pad">
        <stop stop-opacity="1" stop-color="rgb(255,230,191)" offset="0%"/>
        <stop stop-opacity="1" stop-color="rgb(255,173,51)" offset="100%"/>
      </linearGradient>
      <linearGradient x1="117.6667" gradientUnits="userSpaceOnUse" x2="117.6667" y1="306" y2="323" id="linearGradient3" spreadMethod="pad">
        <stop stop-opacity="1" stop-color="rgb(255,230,191)" offset="0%"/>
        <stop stop-opacity="1" stop-color="rgb(255,173,51)" offset="100%"/>
      </linearGradient>
      <linearGradient x1="207.8333" gradientUnits="userSpaceOnUse" x2="207.8333" y1="224" y2="241" id="linearGradient4" spreadMethod="pad">
        <stop stop-opacity="1" stop-color="rgb(255,230,191)" offset="0%"/>
        <stop stop-opacity="1" stop-color="rgb(255,173,51)" offset="100%"/>
      </linearGradient>
      <linearGradient x1="282.6667" gradientUnits="userSpaceOnUse" x2="282.6667" y1="306" y2="328" id="linearGradient5" spreadMethod="pad">
        <stop stop-opacity="1" stop-color="rgb(255,230,191)" offset="0%"/>
        <stop stop-opacity="1" stop-color="rgb(255,173,51)" offset="100%"/>
      </linearGradient>
      <linearGradient x1="377.6667" gradientUnits="userSpaceOnUse" x2="377.6667" y1="224" y2="241" id="linearGradient6" spreadMethod="pad">
        <stop stop-opacity="1" stop-color="rgb(255,230,191)" offset="0%"/>
        <stop stop-opacity="1" stop-color="rgb(255,173,51)" offset="100%"/>
      </linearGradient>
      <linearGradient x1="402.6667" gradientUnits="userSpaceOnUse" x2="402.6667" y1="142" y2="159" id="linearGradient7" spreadMethod="pad">
        <stop stop-opacity="1" stop-color="rgb(255,230,191)" offset="0%"/>
        <stop stop-opacity="1" stop-color="rgb(255,173,51)" offset="100%"/>
      </linearGradient>
      <linearGradient x1="484.8333" gradientUnits="userSpaceOnUse" x2="484.8333" y1="224" y2="241" id="linearGradient8" spreadMethod="pad">
        <stop stop-opacity="1" stop-color="rgb(255,230,191)" offset="0%"/>
        <stop stop-opacity="1" stop-color="rgb(255,173,51)" offset="100%"/>
      </linearGradient>
      <clipPath clipPathUnits="userSpaceOnUse" id="clipPath1">
        <path d="M0 0 L656 0 L656 306 L0 306 L0 0 Z"/>
      </clipPath>
      <clipPath clipPathUnits="userSpaceOnUse" id="clipPath2">
        <path d="M3 73 L659 73 L659 379 L3 379 L3 73 Z"/>
      </clipPath>
      <clipPath clipPathUnits="userSpaceOnUse" id="clipPath3">
        <path d="M112.708 -18.9541 L112.708 637.0459 L-193.292 637.0459 L-193.292 -18.9541 L112.708 -18.9541 Z"/>
      </clipPath>
      <clipPath clipPathUnits="userSpaceOnUse" id="clipPath4">
        <path d="M190.0713 -18.9541 L190.0713 637.0459 L-115.9287 637.0459 L-115.9287 -18.9541 L190.0713 -18.9541 Z"/>
      </clipPath>
      <clipPath clipPathUnits="userSpaceOnUse" id="clipPath5">
        <path d="M271.293 -18.9541 L271.293 637.0459 L-34.707 637.0459 L-34.707 -18.9541 L271.293 -18.9541 Z"/>
      </clipPath>
    </defs>
    <g fill="white" text-rendering="geometricPrecision" shape-rendering="geometricPrecision" transform="translate(-3,-73)" stroke="white">
      <rect x="3" width="656" height="306" y="73" clip-path="url(#clipPath2)" stroke="none"/>
    </g>
    <g fill="rgb(236,245,255)" text-rendering="geometricPrecision" shape-rendering="geometricPrecision" transform="matrix(1,0,0,1,-3,-73)" stroke="rgb(236,245,255)">
      <path d="M18.9541 88 L18.9541 118 L639.5667 118 L639.5667 88 Z" stroke="none" clip-path="url(#clipPath2)"/>
      <rect x="18.9541" width="620.6126" height="245.1328" y="118" clip-path="url(#clipPath2)" stroke="none"/>
      <line clip-path="url(#clipPath2)" fill="rgb(113,146,178)" x1="42.9541" x2="639.5667" y1="118" y2="118" stroke="none"/>
      <rect x="18.9541" y="118" clip-path="url(#clipPath2)" fill="rgb(196,215,237)" width="24" height="80" stroke="none"/>
      <rect x="42.9541" y="118" clip-path="url(#clipPath2)" fill="rgb(196,215,237)" width="596.6126" height="80" stroke="none"/>
      <rect x="18.9541" y="198" clip-path="url(#clipPath2)" fill="rgb(171,200,226)" width="24" height="80" stroke="none"/>
      <rect x="42.9541" y="198" clip-path="url(#clipPath2)" fill="rgb(171,200,226)" width="596.6126" height="80" stroke="none"/>
      <rect x="18.9541" y="278" clip-path="url(#clipPath2)" fill="rgb(196,215,237)" width="24" height="85.1328" stroke="none"/>
      <rect x="42.9541" y="278" clip-path="url(#clipPath2)" fill="rgb(196,215,237)" width="596.6126" height="85.1328" stroke="none"/>
    </g>
    <g text-rendering="geometricPrecision" stroke-miterlimit="1.45" shape-rendering="geometricPrecision" transform="matrix(1,0,0,1,-3,-73)" stroke-linecap="butt">
      <rect fill="none" x="18.9541" width="620.6126" height="275.1328" y="88" clip-path="url(#clipPath2)"/>
      <rect fill="none" x="42.9541" width="596.6126" height="245.1328" y="118" clip-path="url(#clipPath2)"/>
      <rect fill="none" x="18.9541" width="620.6126" height="80" y="118" clip-path="url(#clipPath2)"/>
      <rect fill="none" x="18.9541" width="620.6126" height="80" y="198" clip-path="url(#clipPath2)"/>
      <rect fill="none" x="18.9541" width="620.6126" height="85.1328" y="278" clip-path="url(#clipPath2)"/>
    </g>
    <g font-size="15px" stroke-linecap="butt" transform="matrix(1,0,0,1,-3,-73)" text-rendering="geometricPrecision" font-family="sans-serif" shape-rendering="geometricPrecision" stroke-miterlimit="1.45">
      <text x="247.4489" xml:space="preserve" y="108.502" clip-path="url(#clipPath2)" stroke="none">OpenID authentication</text>
    </g>
    <g text-rendering="geometricPrecision" stroke-miterlimit="1.45" shape-rendering="geometricPrecision" font-family="sans-serif" transform="matrix(-0,-1,1,-0,18.9541,112.708)" stroke-linecap="butt">
      <text x="2" xml:space="preserve" y="13.6016" clip-path="url(#clipPath3)" stroke="none">Keycloak</text>
    </g>
    <g text-rendering="geometricPrecision" stroke-miterlimit="1.45" shape-rendering="geometricPrecision" font-family="sans-serif" transform="matrix(-0,-1,1,-0,18.9541,190.0713)" stroke-linecap="butt">
      <text x="2" xml:space="preserve" y="13.6016" clip-path="url(#clipPath4)" stroke="none">Browser</text>
    </g>
    <g text-rendering="geometricPrecision" stroke-miterlimit="1.45" shape-rendering="geometricPrecision" font-family="sans-serif" transform="matrix(-0,-1,1,-0,18.9541,271.293)" stroke-linecap="butt">
      <text x="2" xml:space="preserve" y="13.6016" clip-path="url(#clipPath5)" stroke="none">OpenID</text>
    </g>
    <g fill="rgb(255,153,0)" text-rendering="geometricPrecision" shape-rendering="geometricPrecision" transform="matrix(1,0,0,1,-3,-73)" stroke="rgb(255,153,0)">
      <path d="M66.3333 157 L165.3333 157 L165.3333 170 Q165.3333 173 162.3333 173 L69.3333 173 Q66.3333 173 66.3333 170 Z" stroke="none" clip-path="url(#clipPath2)"/>
      <path fill="url(#linearGradient1)" d="M66.3333 146 Q66.3333 143 69.3333 143 L162.3333 143 Q165.3333 143 165.3333 146 L165.3333 158 L66.3333 158 Z" clip-path="url(#clipPath2)" stroke="none"/>
      <path fill="none" d="M68.3333 146 Q68.3333 145 69.3333 145 L162.3333 145 Q163.3333 145 163.3333 146 L163.3333 170 Q163.3333 171 162.3333 171 L69.3333 171 Q68.3333 171 68.3333 170 Z" stroke-width="2" clip-path="url(#clipPath2)" stroke="rgb(255,240,217)"/>
      <path fill="none" d="M68.3333 146 Q68.3333 145 69.3333 145 L162.3333 145 Q163.3333 145 163.3333 146 L163.3333 170 Q163.3333 171 162.3333 171 L69.3333 171 Q68.3333 171 68.3333 170 Z" clip-path="url(#clipPath2)"/>
    </g>
    <g text-rendering="geometricPrecision" stroke-miterlimit="1.45" shape-rendering="geometricPrecision" font-family="sans-serif" transform="matrix(1,0,0,1,-3,-73)" stroke-linecap="butt">
      <text x="70.9827" xml:space="preserve" y="162.5352" clip-path="url(#clipPath2)" stroke="none">OpenId request</text>
    </g>
    <g fill="rgb(255,153,0)" text-rendering="geometricPrecision" shape-rendering="geometricPrecision" transform="matrix(1,0,0,1,-3,-73)" stroke="rgb(255,153,0)">
      <path d="M95.8333 239 L135.8333 239 L135.8333 252 Q135.8333 255 132.8333 255 L98.8333 255 Q95.8333 255 95.8333 252 Z" stroke="none" clip-path="url(#clipPath2)"/>
      <path fill="url(#linearGradient2)" d="M95.8333 228 Q95.8333 225 98.8333 225 L132.8333 225 Q135.8333 225 135.8333 228 L135.8333 240 L95.8333 240 Z" clip-path="url(#clipPath2)" stroke="none"/>
      <path fill="none" d="M97.8333 228 Q97.8333 227 98.8333 227 L132.8333 227 Q133.8333 227 133.8333 228 L133.8333 252 Q133.8333 253 132.8333 253 L98.8333 253 Q97.8333 253 97.8333 252 Z" stroke-width="2" clip-path="url(#clipPath2)" stroke="rgb(255,240,217)"/>
      <path fill="none" d="M97.8333 228 Q97.8333 227 98.8333 227 L132.8333 227 Q133.8333 227 133.8333 228 L133.8333 252 Q133.8333 253 132.8333 253 L98.8333 253 Q97.8333 253 97.8333 252 Z" clip-path="url(#clipPath2)"/>
    </g>
    <g text-rendering="geometricPrecision" stroke-miterlimit="1.45" shape-rendering="geometricPrecision" font-family="sans-serif" transform="matrix(1,0,0,1,-3,-73)" stroke-linecap="butt">
      <text x="110.7357" xml:space="preserve" y="244.5352" clip-path="url(#clipPath2)" stroke="none">JS</text>
    </g>
    <g fill="rgb(255,153,0)" text-rendering="geometricPrecision" shape-rendering="geometricPrecision" transform="matrix(1,0,0,1,-3,-73)" stroke="rgb(255,153,0)">
      <path d="M117.6667 321 L252.6667 321 L252.6667 334 Q252.6667 337 249.6667 337 L120.6667 337 Q117.6667 337 117.6667 334 Z" stroke="none" clip-path="url(#clipPath2)"/>
      <path fill="url(#linearGradient3)" d="M117.6667 310 Q117.6667 307 120.6667 307 L249.6667 307 Q252.6667 307 252.6667 310 L252.6667 322 L117.6667 322 Z" clip-path="url(#clipPath2)" stroke="none"/>
      <path fill="none" d="M119.6667 310 Q119.6667 309 120.6667 309 L249.6667 309 Q250.6667 309 250.6667 310 L250.6667 334 Q250.6667 335 249.6667 335 L120.6667 335 Q119.6667 335 119.6667 334 Z" stroke-width="2" clip-path="url(#clipPath2)" stroke="rgb(255,240,217)"/>
      <path fill="none" d="M119.6667 310 Q119.6667 309 120.6667 309 L249.6667 309 Q250.6667 309 250.6667 310 L250.6667 334 Q250.6667 335 249.6667 335 L120.6667 335 Q119.6667 335 119.6667 334 Z" clip-path="url(#clipPath2)"/>
    </g>
    <g text-rendering="geometricPrecision" stroke-miterlimit="1.45" shape-rendering="geometricPrecision" font-family="sans-serif" transform="matrix(1,0,0,1,-3,-73)" stroke-linecap="butt">
      <text x="126.4792" xml:space="preserve" y="326.5352" clip-path="url(#clipPath2)" stroke="none">Generate Auth Form</text>
    </g>
    <g fill="rgb(255,153,0)" text-rendering="geometricPrecision" shape-rendering="geometricPrecision" transform="matrix(1,0,0,1,-3,-73)" stroke="rgb(255,153,0)">
      <path d="M207.8333 239 L300.8333 239 L300.8333 252 Q300.8333 255 297.8333 255 L210.8333 255 Q207.8333 255 207.8333 252 Z" stroke="none" clip-path="url(#clipPath2)"/>
      <path fill="url(#linearGradient4)" d="M207.8333 228 Q207.8333 225 210.8333 225 L297.8333 225 Q300.8333 225 300.8333 228 L300.8333 240 L207.8333 240 Z" clip-path="url(#clipPath2)" stroke="none"/>
      <path fill="none" d="M209.8333 228 Q209.8333 227 210.8333 227 L297.8333 227 Q298.8333 227 298.8333 228 L298.8333 252 Q298.8333 253 297.8333 253 L210.8333 253 Q209.8333 253 209.8333 252 Z" stroke-width="2" clip-path="url(#clipPath2)" stroke="rgb(255,240,217)"/>
      <path fill="none" d="M209.8333 228 Q209.8333 227 210.8333 227 L297.8333 227 Q298.8333 227 298.8333 228 L298.8333 252 Q298.8333 253 297.8333 253 L210.8333 253 Q209.8333 253 209.8333 252 Z" clip-path="url(#clipPath2)"/>
    </g>
    <g text-rendering="geometricPrecision" stroke-miterlimit="1.45" shape-rendering="geometricPrecision" font-family="sans-serif" transform="matrix(1,0,0,1,-3,-73)" stroke-linecap="butt">
      <text x="212.2161" xml:space="preserve" y="244.5352" clip-path="url(#clipPath2)" stroke="none">Fill credentials</text>
    </g>
    <g fill="rgb(255,153,0)" text-rendering="geometricPrecision" shape-rendering="geometricPrecision" transform="matrix(1,0,0,1,-3,-73)" stroke="rgb(255,153,0)">
      <path d="M282.6667 326 L417.6667 326 L417.6667 344 Q417.6667 347 414.6667 347 L285.6667 347 Q282.6667 347 282.6667 344 Z" stroke="none" clip-path="url(#clipPath2)"/>
      <path fill="url(#linearGradient5)" d="M282.6667 310 Q282.6667 307 285.6667 307 L414.6667 307 Q417.6667 307 417.6667 310 L417.6667 327 L282.6667 327 Z" clip-path="url(#clipPath2)" stroke="none"/>
      <path fill="none" d="M284.6667 310 Q284.6667 309 285.6667 309 L414.6667 309 Q415.6667 309 415.6667 310 L415.6667 344 Q415.6667 345 414.6667 345 L285.6667 345 Q284.6667 345 284.6667 344 Z" stroke-width="2" clip-path="url(#clipPath2)" stroke="rgb(255,240,217)"/>
      <path fill="none" d="M284.6667 310 Q284.6667 309 285.6667 309 L414.6667 309 Q415.6667 309 415.6667 310 L415.6667 344 Q415.6667 345 414.6667 345 L285.6667 345 Q284.6667 345 284.6667 344 Z" clip-path="url(#clipPath2)"/>
    </g>
    <g text-rendering="geometricPrecision" stroke-miterlimit="1.45" shape-rendering="geometricPrecision" font-family="sans-serif" transform="matrix(1,0,0,1,-3,-73)" stroke-linecap="butt">
      <text x="324.0661" xml:space="preserve" y="324.4688" clip-path="url(#clipPath2)" stroke="none">Generate</text>
      <text x="300.0983" xml:space="preserve" y="338.6016" clip-path="url(#clipPath2)" stroke="none">OpenID response</text>
    </g>
    <g fill="rgb(255,153,0)" text-rendering="geometricPrecision" shape-rendering="geometricPrecision" transform="matrix(1,0,0,1,-3,-73)" stroke="rgb(255,153,0)">
      <path d="M377.6667 239 L417.6667 239 L417.6667 252 Q417.6667 255 414.6667 255 L380.6667 255 Q377.6667 255 377.6667 252 Z" stroke="none" clip-path="url(#clipPath2)"/>
      <path fill="url(#linearGradient6)" d="M377.6667 228 Q377.6667 225 380.6667 225 L414.6667 225 Q417.6667 225 417.6667 228 L417.6667 240 L377.6667 240 Z" clip-path="url(#clipPath2)" stroke="none"/>
      <path fill="none" d="M379.6667 228 Q379.6667 227 380.6667 227 L414.6667 227 Q415.6667 227 415.6667 228 L415.6667 252 Q415.6667 253 414.6667 253 L380.6667 253 Q379.6667 253 379.6667 252 Z" stroke-width="2" clip-path="url(#clipPath2)" stroke="rgb(255,240,217)"/>
      <path fill="none" d="M379.6667 228 Q379.6667 227 380.6667 227 L414.6667 227 Q415.6667 227 415.6667 228 L415.6667 252 Q415.6667 253 414.6667 253 L380.6667 253 Q379.6667 253 379.6667 252 Z" clip-path="url(#clipPath2)"/>
    </g>
    <g text-rendering="geometricPrecision" stroke-miterlimit="1.45" shape-rendering="geometricPrecision" font-family="sans-serif" transform="matrix(1,0,0,1,-3,-73)" stroke-linecap="butt">
      <text x="392.569" xml:space="preserve" y="244.5352" clip-path="url(#clipPath2)" stroke="none">JS</text>
    </g>
    <g fill="rgb(255,153,0)" text-rendering="geometricPrecision" shape-rendering="geometricPrecision" transform="matrix(1,0,0,1,-3,-73)" stroke="rgb(255,153,0)">
      <path d="M402.6667 157 L501.6667 157 L501.6667 170 Q501.6667 173 498.6667 173 L405.6667 173 Q402.6667 173 402.6667 170 Z" stroke="none" clip-path="url(#clipPath2)"/>
      <path fill="url(#linearGradient7)" d="M402.6667 146 Q402.6667 143 405.6667 143 L498.6667 143 Q501.6667 143 501.6667 146 L501.6667 158 L402.6667 158 Z" clip-path="url(#clipPath2)" stroke="none"/>
      <path fill="none" d="M404.6667 146 Q404.6667 145 405.6667 145 L498.6667 145 Q499.6667 145 499.6667 146 L499.6667 170 Q499.6667 171 498.6667 171 L405.6667 171 Q404.6667 171 404.6667 170 Z" stroke-width="2" clip-path="url(#clipPath2)" stroke="rgb(255,240,217)"/>
      <path fill="none" d="M404.6667 146 Q404.6667 145 405.6667 145 L498.6667 145 Q499.6667 145 499.6667 146 L499.6667 170 Q499.6667 171 498.6667 171 L405.6667 171 Q404.6667 171 404.6667 170 Z" clip-path="url(#clipPath2)"/>
    </g>
    <g text-rendering="geometricPrecision" stroke-miterlimit="1.45" shape-rendering="geometricPrecision" font-family="sans-serif" transform="matrix(1,0,0,1,-3,-73)" stroke-linecap="butt">
      <text x="421.6042" xml:space="preserve" y="162.5352" clip-path="url(#clipPath2)" stroke="none">Login user</text>
    </g>
    <g fill="rgb(255,153,0)" text-rendering="geometricPrecision" shape-rendering="geometricPrecision" transform="matrix(1,0,0,1,-3,-73)" stroke="rgb(255,153,0)">
      <path d="M484.8333 239 L577.8334 239 L577.8334 252 Q577.8334 255 574.8334 255 L487.8333 255 Q484.8333 255 484.8333 252 Z" stroke="none" clip-path="url(#clipPath2)"/>
      <path fill="url(#linearGradient8)" d="M484.8333 228 Q484.8333 225 487.8333 225 L574.8334 225 Q577.8334 225 577.8334 228 L577.8334 240 L484.8333 240 Z" clip-path="url(#clipPath2)" stroke="none"/>
      <path fill="none" d="M486.8333 228 Q486.8333 227 487.8333 227 L574.8334 227 Q575.8334 227 575.8334 228 L575.8334 252 Q575.8334 253 574.8334 253 L487.8333 253 Q486.8333 253 486.8333 252 Z" stroke-width="2" clip-path="url(#clipPath2)" stroke="rgb(255,240,217)"/>
      <path fill="none" d="M486.8333 228 Q486.8333 227 487.8333 227 L574.8334 227 Q575.8334 227 575.8334 228 L575.8334 252 Q575.8334 253 574.8334 253 L487.8333 253 Q486.8333 253 486.8333 252 Z" clip-path="url(#clipPath2)"/>
    </g>
    <g text-rendering="geometricPrecision" stroke-miterlimit="1.45" shape-rendering="geometricPrecision" font-family="sans-serif" transform="matrix(1,0,0,1,-3,-73)" stroke-linecap="butt">
      <text x="492.8372" xml:space="preserve" y="244.5352" clip-path="url(#clipPath2)" stroke="none">redirect page</text>
    </g>
    <g text-rendering="geometricPrecision" stroke-miterlimit="1.45" shape-rendering="geometricPrecision" transform="matrix(1,0,0,1,-3,-73)" stroke-linecap="butt">
      <path fill="none" d="M115.8333 173.0146 L115.8333 216.9872" clip-path="url(#clipPath2)"/>
    </g>
    <g text-rendering="geometricPrecision" stroke-miterlimit="1.45" shape-rendering="geometricPrecision" transform="matrix(1,0,0,1,-3,-73)" stroke-linecap="butt">
      <path d="M115.8333 224.9872 L120.8333 212.9872 L115.8333 215.9872 L110.8333 212.9872 Z" stroke="none" clip-path="url(#clipPath2)"/>
      <text x="166.4036" xml:space="preserve" y="191.4688" clip-path="url(#clipPath2)" font-family="sans-serif" stroke="none">1. Page with POST</text>
      <text x="188.3704" xml:space="preserve" y="205.6016" clip-path="url(#clipPath2)" font-family="sans-serif" stroke="none">or redirect</text>
      <path fill="none" d="M128.5117 254.9946 L167.3038 300.8737" clip-path="url(#clipPath2)"/>
      <path d="M172.4691 306.9827 L168.5392 294.5909 L166.6581 300.1101 L160.903 301.0475 Z" clip-path="url(#clipPath2)" stroke="none"/>
      <text x="70.2438" xml:space="preserve" y="275.1678" clip-path="url(#clipPath2)" font-family="sans-serif" stroke="none">2. Get/Post</text>
      <text x="79.9265" xml:space="preserve" y="289.3007" clip-path="url(#clipPath2)" font-family="sans-serif" stroke="none">Request</text>
      <path fill="none" d="M197.8146 307.0054 L236.5082 261.1324" clip-path="url(#clipPath2)"/>
      <path d="M241.6663 255.0173 L230.1073 260.9662 L235.8635 261.8968 L237.7511 267.4138 Z" clip-path="url(#clipPath2)" stroke="none"/>
      <text x="145.9264" xml:space="preserve" y="270.8779" clip-path="url(#clipPath2)" font-family="sans-serif" stroke="none">3. Return form</text>
      <path fill="none" d="M270.8749 255.0168 L322.1943 301.6059" clip-path="url(#clipPath2)"/>
      <path d="M328.1175 306.9832 L322.5934 295.2152 L321.4539 300.9337 L315.8719 302.6193 Z" clip-path="url(#clipPath2)" stroke="none"/>
      <text x="245.1159" xml:space="preserve" y="287.6809" clip-path="url(#clipPath2)" font-family="sans-serif" stroke="none">4. Post</text>
      <text x="233.2126" xml:space="preserve" y="301.8138" clip-path="url(#clipPath2)" font-family="sans-serif" stroke="none">credentials</text>
      <path fill="none" d="M361.0907 306.9917 L385.6356 262.0359" clip-path="url(#clipPath2)"/>
      <path d="M389.4692 255.0143 L379.3303 263.1507 L385.1564 262.9136 L388.1073 267.9427 Z" clip-path="url(#clipPath2)" stroke="none"/>
      <text x="406.4362" xml:space="preserve" y="276.2232" clip-path="url(#clipPath2)" font-family="sans-serif" stroke="none">5.Page with POST </text>
      <text x="428.403" xml:space="preserve" y="290.356" clip-path="url(#clipPath2)" font-family="sans-serif" stroke="none">or redirect</text>
      <path fill="none" d="M407.6459 224.9854 L437.7604 179.6755" clip-path="url(#clipPath2)"/>
      <path d="M442.1886 173.0128 L431.3821 180.2392 L437.2069 180.5083 L439.7104 185.7744 Z" clip-path="url(#clipPath2)" stroke="none"/>
      <text x="337.0726" xml:space="preserve" y="192.3381" clip-path="url(#clipPath2)" font-family="sans-serif" stroke="none">6. Get/Post</text>
      <text x="342.2552" xml:space="preserve" y="206.4709" clip-path="url(#clipPath2)" font-family="sans-serif" stroke="none">Response</text>
      <path fill="none" d="M466.6432 172.9946 L511.2784 219.2273" clip-path="url(#clipPath2)"/>
      <path d="M516.8349 224.9827 L512.0972 212.8767 L510.5838 218.5078 L504.903 219.8224 Z" clip-path="url(#clipPath2)" stroke="none"/>
      <text x="510.0178" xml:space="preserve" y="192.3722" clip-path="url(#clipPath2)" font-family="sans-serif" stroke="none">Redirect to application</text>
    </g>
  </g>
</svg>
