<?xml version="1.0" encoding="UTF-8"?><svg xmlns="http://www.w3.org/2000/svg" xmlns:xlink="http://www.w3.org/1999/xlink" fill-opacity="1" color-rendering="auto" color-interpolation="auto" text-rendering="auto" stroke="black" stroke-linecap="square" width="414" stroke-miterlimit="10" shape-rendering="auto" stroke-opacity="1" fill="black" stroke-dasharray="none" font-weight="normal" stroke-width="1" height="286" font-family="'Dialog'" font-style="normal" stroke-linejoin="miter" font-size="12px" stroke-dashoffset="0" image-rendering="auto">
  <!--Generated by ySVG 2.5-->
  <defs id="genericDefs"/>
  <g>
    <defs id="defs1">
      <linearGradient x1="175" gradientUnits="userSpaceOnUse" x2="175" y1="120" y2="155.5" id="linearGradient1" spreadMethod="pad">
        <stop stop-opacity="1" stop-color="rgb(255,230,191)" offset="0%"/>
        <stop stop-opacity="1" stop-color="rgb(255,173,51)" offset="100%"/>
      </linearGradient>
      <linearGradient x1="318" gradientUnits="userSpaceOnUse" x2="318" y1="212" y2="247.5" id="linearGradient2" spreadMethod="pad">
        <stop stop-opacity="1" stop-color="rgb(255,230,191)" offset="0%"/>
        <stop stop-opacity="1" stop-color="rgb(255,173,51)" offset="100%"/>
      </linearGradient>
      <linearGradient x1="175" gradientUnits="userSpaceOnUse" x2="175" y1="212" y2="247.5" id="linearGradient3" spreadMethod="pad">
        <stop stop-opacity="1" stop-color="rgb(255,230,191)" offset="0%"/>
        <stop stop-opacity="1" stop-color="rgb(255,173,51)" offset="100%"/>
      </linearGradient>
      <linearGradient x1="175" gradientUnits="userSpaceOnUse" x2="175" y1="309" y2="344.5" id="linearGradient4" spreadMethod="pad">
        <stop stop-opacity="1" stop-color="rgb(255,230,191)" offset="0%"/>
        <stop stop-opacity="1" stop-color="rgb(255,173,51)" offset="100%"/>
      </linearGradient>
      <linearGradient x1="461" gradientUnits="userSpaceOnUse" x2="461" y1="120" y2="155.5" id="linearGradient5" spreadMethod="pad">
        <stop stop-opacity="1" stop-color="rgb(255,230,191)" offset="0%"/>
        <stop stop-opacity="1" stop-color="rgb(255,173,51)" offset="100%"/>
      </linearGradient>
      <linearGradient x1="461" gradientUnits="userSpaceOnUse" x2="461" y1="217" y2="252.5" id="linearGradient6" spreadMethod="pad">
        <stop stop-opacity="1" stop-color="rgb(255,230,191)" offset="0%"/>
        <stop stop-opacity="1" stop-color="rgb(255,173,51)" offset="100%"/>
      </linearGradient>
      <linearGradient x1="461" gradientUnits="userSpaceOnUse" x2="461" y1="309" y2="344.5" id="linearGradient7" spreadMethod="pad">
        <stop stop-opacity="1" stop-color="rgb(255,230,191)" offset="0%"/>
        <stop stop-opacity="1" stop-color="rgb(255,173,51)" offset="100%"/>
      </linearGradient>
      <clipPath clipPathUnits="userSpaceOnUse" id="clipPath1">
        <path d="M0 0 L414 0 L414 286 L0 286 L0 0 Z"/>
      </clipPath>
      <clipPath clipPathUnits="userSpaceOnUse" id="clipPath2">
        <path d="M160 106 L574 106 L574 392 L160 392 L160 106 Z"/>
      </clipPath>
    </defs>
    <g fill="white" text-rendering="geometricPrecision" shape-rendering="geometricPrecision" transform="translate(-160,-106)" stroke="white">
      <rect x="160" width="414" height="286" y="106" clip-path="url(#clipPath2)" stroke="none"/>
    </g>
    <g fill="rgb(255,153,0)" text-rendering="geometricPrecision" shape-rendering="geometricPrecision" transform="matrix(1,0,0,1,-160,-106)" stroke="rgb(255,153,0)">
      <path d="M175 153.5 L273 153.5 L273 185 Q273 188 270 188 L178 188 Q175 188 175 185 Z" stroke="none" clip-path="url(#clipPath2)"/>
      <path fill="url(#linearGradient1)" d="M175 124 Q175 121 178 121 L270 121 Q273 121 273 124 L273 154.5 L175 154.5 Z" clip-path="url(#clipPath2)" stroke="none"/>
      <path fill="none" d="M177 124 Q177 123 178 123 L270 123 Q271 123 271 124 L271 185 Q271 186 270 186 L178 186 Q177 186 177 185 Z" stroke-width="2" clip-path="url(#clipPath2)" stroke="rgb(255,240,217)"/>
      <path fill="none" d="M177 124 Q177 123 178 123 L270 123 Q271 123 271 124 L271 185 Q271 186 270 186 L178 186 Q177 186 177 185 Z" clip-path="url(#clipPath2)"/>
    </g>
    <g text-rendering="geometricPrecision" stroke-miterlimit="1.45" shape-rendering="geometricPrecision" font-family="sans-serif" transform="matrix(1,0,0,1,-160,-106)" stroke-linecap="butt">
      <text x="200.3838" xml:space="preserve" y="159.0352" clip-path="url(#clipPath2)" stroke="none">Sovellus</text>
    </g>
    <g fill="rgb(255,153,0)" text-rendering="geometricPrecision" shape-rendering="geometricPrecision" transform="matrix(1,0,0,1,-160,-106)" stroke="rgb(255,153,0)">
      <path d="M318 245.5 L416 245.5 L416 277 Q416 280 413 280 L321 280 Q318 280 318 277 Z" stroke="none" clip-path="url(#clipPath2)"/>
      <path fill="url(#linearGradient2)" d="M318 216 Q318 213 321 213 L413 213 Q416 213 416 216 L416 246.5 L318 246.5 Z" clip-path="url(#clipPath2)" stroke="none"/>
      <path fill="none" d="M320 216 Q320 215 321 215 L413 215 Q414 215 414 216 L414 277 Q414 278 413 278 L321 278 Q320 278 320 277 Z" stroke-width="2" clip-path="url(#clipPath2)" stroke="rgb(255,240,217)"/>
      <path fill="none" d="M320 216 Q320 215 321 215 L413 215 Q414 215 414 216 L414 277 Q414 278 413 278 L321 278 Q320 278 320 277 Z" clip-path="url(#clipPath2)"/>
    </g>
    <g text-rendering="geometricPrecision" stroke-miterlimit="1.45" shape-rendering="geometricPrecision" font-family="sans-serif" transform="matrix(1,0,0,1,-160,-106)" stroke-linecap="butt">
      <text x="341.292" xml:space="preserve" y="251.0352" clip-path="url(#clipPath2)" stroke="none">Keycloak</text>
    </g>
    <g fill="rgb(255,153,0)" text-rendering="geometricPrecision" shape-rendering="geometricPrecision" transform="matrix(1,0,0,1,-160,-106)" stroke="rgb(255,153,0)">
      <path d="M175 245.5 L273 245.5 L273 277 Q273 280 270 280 L178 280 Q175 280 175 277 Z" stroke="none" clip-path="url(#clipPath2)"/>
      <path fill="url(#linearGradient3)" d="M175 216 Q175 213 178 213 L270 213 Q273 213 273 216 L273 246.5 L175 246.5 Z" clip-path="url(#clipPath2)" stroke="none"/>
      <path fill="none" d="M177 216 Q177 215 178 215 L270 215 Q271 215 271 216 L271 277 Q271 278 270 278 L178 278 Q177 278 177 277 Z" stroke-width="2" clip-path="url(#clipPath2)" stroke="rgb(255,240,217)"/>
      <path fill="none" d="M177 216 Q177 215 178 215 L270 215 Q271 215 271 216 L271 277 Q271 278 270 278 L178 278 Q177 278 177 277 Z" clip-path="url(#clipPath2)"/>
    </g>
    <g text-rendering="geometricPrecision" stroke-miterlimit="1.45" shape-rendering="geometricPrecision" font-family="sans-serif" transform="matrix(1,0,0,1,-160,-106)" stroke-linecap="butt">
      <text x="200.3838" xml:space="preserve" y="251.0352" clip-path="url(#clipPath2)" stroke="none">Sovellus</text>
    </g>
    <g fill="rgb(255,153,0)" text-rendering="geometricPrecision" shape-rendering="geometricPrecision" transform="matrix(1,0,0,1,-160,-106)" stroke="rgb(255,153,0)">
      <path d="M175 342.5 L273 342.5 L273 374 Q273 377 270 377 L178 377 Q175 377 175 374 Z" stroke="none" clip-path="url(#clipPath2)"/>
      <path fill="url(#linearGradient4)" d="M175 313 Q175 310 178 310 L270 310 Q273 310 273 313 L273 343.5 L175 343.5 Z" clip-path="url(#clipPath2)" stroke="none"/>
      <path fill="none" d="M177 313 Q177 312 178 312 L270 312 Q271 312 271 313 L271 374 Q271 375 270 375 L178 375 Q177 375 177 374 Z" stroke-width="2" clip-path="url(#clipPath2)" stroke="rgb(255,240,217)"/>
      <path fill="none" d="M177 313 Q177 312 178 312 L270 312 Q271 312 271 313 L271 374 Q271 375 270 375 L178 375 Q177 375 177 374 Z" clip-path="url(#clipPath2)"/>
    </g>
    <g text-rendering="geometricPrecision" stroke-miterlimit="1.45" shape-rendering="geometricPrecision" font-family="sans-serif" transform="matrix(1,0,0,1,-160,-106)" stroke-linecap="butt">
      <text x="200.3838" xml:space="preserve" y="348.0352" clip-path="url(#clipPath2)" stroke="none">Sovellus</text>
    </g>
    <g fill="rgb(255,153,0)" text-rendering="geometricPrecision" shape-rendering="geometricPrecision" transform="matrix(1,0,0,1,-160,-106)" stroke="rgb(255,153,0)">
      <path d="M461 153.5 L559 153.5 L559 185 Q559 188 556 188 L464 188 Q461 188 461 185 Z" stroke="none" clip-path="url(#clipPath2)"/>
      <path fill="url(#linearGradient5)" d="M461 124 Q461 121 464 121 L556 121 Q559 121 559 124 L559 154.5 L461 154.5 Z" clip-path="url(#clipPath2)" stroke="none"/>
      <path fill="none" d="M463 124 Q463 123 464 123 L556 123 Q557 123 557 124 L557 185 Q557 186 556 186 L464 186 Q463 186 463 185 Z" stroke-width="2" clip-path="url(#clipPath2)" stroke="rgb(255,240,217)"/>
      <path fill="none" d="M463 124 Q463 123 464 123 L556 123 Q557 123 557 124 L557 185 Q557 186 556 186 L464 186 Q463 186 463 185 Z" clip-path="url(#clipPath2)"/>
    </g>
    <g text-rendering="geometricPrecision" stroke-miterlimit="1.45" shape-rendering="geometricPrecision" font-family="sans-serif" transform="matrix(1,0,0,1,-160,-106)" stroke-linecap="butt">
      <text x="482.3994" xml:space="preserve" y="159.0352" clip-path="url(#clipPath2)" stroke="none">Facebook</text>
    </g>
    <g fill="rgb(255,153,0)" text-rendering="geometricPrecision" shape-rendering="geometricPrecision" transform="matrix(1,0,0,1,-160,-106)" stroke="rgb(255,153,0)">
      <path d="M461 250.5 L559 250.5 L559 282 Q559 285 556 285 L464 285 Q461 285 461 282 Z" stroke="none" clip-path="url(#clipPath2)"/>
      <path fill="url(#linearGradient6)" d="M461 221 Q461 218 464 218 L556 218 Q559 218 559 221 L559 251.5 L461 251.5 Z" clip-path="url(#clipPath2)" stroke="none"/>
      <path fill="none" d="M463 221 Q463 220 464 220 L556 220 Q557 220 557 221 L557 282 Q557 283 556 283 L464 283 Q463 283 463 282 Z" stroke-width="2" clip-path="url(#clipPath2)" stroke="rgb(255,240,217)"/>
      <path fill="none" d="M463 221 Q463 220 464 220 L556 220 Q557 220 557 221 L557 282 Q557 283 556 283 L464 283 Q463 283 463 282 Z" clip-path="url(#clipPath2)"/>
    </g>
    <g text-rendering="geometricPrecision" stroke-miterlimit="1.45" shape-rendering="geometricPrecision" font-family="sans-serif" transform="matrix(1,0,0,1,-160,-106)" stroke-linecap="butt">
      <text x="485.1064" xml:space="preserve" y="248.9688" clip-path="url(#clipPath2)" stroke="none">Tunnus/</text>
      <text x="485.1709" xml:space="preserve" y="263.1016" clip-path="url(#clipPath2)" stroke="none">salasana</text>
    </g>
    <g fill="rgb(255,153,0)" text-rendering="geometricPrecision" shape-rendering="geometricPrecision" transform="matrix(1,0,0,1,-160,-106)" stroke="rgb(255,153,0)">
      <path d="M461 342.5 L559 342.5 L559 374 Q559 377 556 377 L464 377 Q461 377 461 374 Z" stroke="none" clip-path="url(#clipPath2)"/>
      <path fill="url(#linearGradient7)" d="M461 313 Q461 310 464 310 L556 310 Q559 310 559 313 L559 343.5 L461 343.5 Z" clip-path="url(#clipPath2)" stroke="none"/>
      <path fill="none" d="M463 313 Q463 312 464 312 L556 312 Q557 312 557 313 L557 374 Q557 375 556 375 L464 375 Q463 375 463 374 Z" stroke-width="2" clip-path="url(#clipPath2)" stroke="rgb(255,240,217)"/>
      <path fill="none" d="M463 313 Q463 312 464 312 L556 312 Q557 312 557 313 L557 374 Q557 375 556 375 L464 375 Q463 375 463 374 Z" clip-path="url(#clipPath2)"/>
    </g>
    <g text-rendering="geometricPrecision" stroke-miterlimit="1.45" shape-rendering="geometricPrecision" font-family="sans-serif" transform="matrix(1,0,0,1,-160,-106)" stroke-linecap="butt">
      <text x="494.8506" xml:space="preserve" y="348.0352" clip-path="url(#clipPath2)" stroke="none">LDAP</text>
    </g>
    <g text-rendering="geometricPrecision" stroke-miterlimit="1.45" shape-rendering="geometricPrecision" transform="matrix(1,0,0,1,-160,-106)" stroke-linecap="butt">
      <path fill="none" d="M272.9817 186.0127 L311.3119 210.6727" clip-path="url(#clipPath2)"/>
    </g>
    <g text-rendering="geometricPrecision" stroke-miterlimit="1.45" shape-rendering="geometricPrecision" transform="matrix(1,0,0,1,-160,-106)" stroke-linecap="butt">
      <path d="M318.0398 215.0011 L310.6532 204.3035 L310.4709 210.1316 L305.2427 212.7134 Z" stroke="none" clip-path="url(#clipPath2)"/>
      <path fill="none" d="M272.9817 246.5 L310.0168 246.5" clip-path="url(#clipPath2)"/>
      <path d="M318.0168 246.5 L306.0168 241.5 L309.0168 246.5 L306.0168 251.5 Z" clip-path="url(#clipPath2)" stroke="none"/>
      <path fill="none" d="M272.2834 310.7483 L312.0731 283.7581" clip-path="url(#clipPath2)"/>
      <path d="M318.6936 279.2672 L305.956 281.8657 L311.2455 284.3195 L311.5696 290.1414 Z" clip-path="url(#clipPath2)" stroke="none"/>
      <path fill="none" d="M461.0183 186.0127 L422.6881 210.6727" clip-path="url(#clipPath2)"/>
      <path d="M415.9602 215.0011 L428.7573 212.7134 L423.5291 210.1316 L423.3468 204.3035 Z" clip-path="url(#clipPath2)" stroke="none"/>
      <path fill="none" d="M461.0183 249.7874 L423.9783 248.4922" clip-path="url(#clipPath2)"/>
      <path d="M415.9832 248.2127 L427.8011 253.629 L424.9777 248.5272 L428.1506 243.6351 Z" clip-path="url(#clipPath2)" stroke="none"/>
      <path fill="none" d="M461.7166 310.7483 L421.9269 283.7581" clip-path="url(#clipPath2)"/>
      <path d="M415.3064 279.2672 L422.4304 290.1414 L422.7545 284.3195 L428.044 281.8657 Z" clip-path="url(#clipPath2)" stroke="none"/>
    </g>
  </g>
</svg>
